<svg width="73" height="74" viewBox="0 0 73 74" fill="none" xmlns="http://www.w3.org/2000/svg">
<path d="M12.6988 15.5929C12.514 15.4307 12.2829 15.3101 12.0339 15.5929L11.7923 15.866L12.5394 16.5211L12.781 16.2407C13.0314 15.9699 12.8836 15.7551 12.6988 15.5929Z" fill="white"/>
<path d="M30.411 67.5125C29.9152 67.4132 29.6856 67.8193 29.5793 68.4213C29.473 69.0233 29.5068 69.4775 30.0025 69.5764C30.4983 69.6752 30.7085 69.2742 30.8291 68.6722C30.9497 68.0702 30.8947 67.6114 30.411 67.5125Z" fill="white"/>
<path d="M16.698 11.7979C16.6676 11.7438 16.625 11.6976 16.5736 11.6629C16.5222 11.6282 16.4634 11.606 16.4019 11.598C16.3404 11.5901 16.2779 11.5965 16.2194 11.6169C16.1608 11.6373 16.1078 11.6711 16.0646 11.7156L15.7874 11.9378L16.3649 12.6632L16.6477 12.4359C16.7018 12.4039 16.7474 12.3593 16.7806 12.3059C16.8137 12.2524 16.8334 12.1917 16.8379 12.129C16.8425 12.0663 16.8317 12.0034 16.8067 11.9457C16.7816 11.888 16.7429 11.8373 16.6939 11.7979H16.698Z" fill="white"/>
<path d="M33.0916 25.3514C34.4574 25.3514 34.815 24.2203 34.815 22.6924C34.815 21.1645 34.4574 20.0334 33.0916 20.0334C31.7259 20.0334 31.378 21.1622 31.378 22.6901C31.378 24.218 31.7453 25.3514 33.0916 25.3514Z" fill="white"/>
<path d="M40.0534 68.4551C40.0572 68.387 40.0453 68.319 40.0187 68.2562C39.992 68.1935 39.9514 68.1376 39.8998 68.093C39.8482 68.0484 39.7871 68.0162 39.7212 67.9989C39.6552 67.9816 39.5862 67.9796 39.5193 67.9931L39.1275 68.0319L39.2241 69.0447L39.6251 69.0059C40.0266 68.9652 40.0802 68.7139 40.0534 68.4551Z" fill="white"/>
<path d="M52.2315 9.07157C52.2698 9.02307 52.2963 8.96632 52.3089 8.90582C52.3216 8.84531 52.3199 8.7827 52.3042 8.72292C52.2885 8.66315 52.2591 8.60784 52.2183 8.56139C52.1775 8.51493 52.1265 8.47858 52.0693 8.45522L51.7574 8.28381L51.3153 9.09097L51.6345 9.26515C51.684 9.30141 51.7413 9.32539 51.8018 9.33514C51.8623 9.34488 51.9243 9.3401 51.9826 9.3212C52.0409 9.30229 52.0938 9.26979 52.1371 9.22639C52.1804 9.18299 52.2127 9.12992 52.2315 9.07157Z" fill="white"/>
<path d="M27.716 7.13509L26.9592 5.93152L26.9952 7.35779L27.716 7.13509Z" fill="white"/>
<path d="M56.0335 28.1503C54.6871 28.1503 54.3101 29.2813 54.3101 30.8092C54.3101 32.3371 54.6871 33.4682 56.0335 33.4682C57.3798 33.4682 57.7568 32.3344 57.7568 30.8092C57.7568 29.2841 57.4043 28.1503 56.0335 28.1503Z" fill="white"/>
<path d="M21.9725 10.0209C22.3786 9.80331 22.2918 9.40458 22.028 8.91853C21.7641 8.43248 21.4768 8.13309 21.0609 8.3507C20.6451 8.56832 20.7444 8.97444 21.0078 9.4628C21.2712 9.95116 21.5738 10.239 21.9725 10.0209Z" fill="white"/>
<path d="M36.5 0.5C29.281 0.5 22.2241 2.64069 16.2217 6.65136C10.2193 10.662 5.54101 16.3625 2.77841 23.032C0.0158148 29.7015 -0.707007 37.0405 0.701354 44.1208C2.10971 51.2011 5.586 57.7048 10.6906 62.8094C15.7952 67.914 22.2989 71.3903 29.3792 72.7986C36.4595 74.207 43.7984 73.4842 50.4679 70.7216C57.1374 67.959 62.838 63.2807 66.8486 57.2783C70.8593 51.2759 73 44.219 73 37C73 32.2067 72.0559 27.4604 70.2216 23.032C68.3873 18.6037 65.6987 14.5799 62.3094 11.1906C58.9201 7.80126 54.8963 5.11269 50.4679 3.2784C46.0396 1.4441 41.2932 0.5 36.5 0.5ZM64.2982 27.5488H65V34.0749H64.1735L61.1241 28.5999V34.0749H60.4311V27.5483H61.289L64.307 32.9633L64.2982 27.5488ZM61.4216 16.7296C61.5006 16.6532 61.596 16.5959 61.7006 16.5623C61.8052 16.5287 61.9162 16.5196 62.0248 16.5357C62.1335 16.5519 62.237 16.5928 62.3273 16.6553C62.4177 16.7178 62.4924 16.8003 62.5457 16.8964C62.6293 16.9776 62.6926 17.0772 62.7308 17.1873C62.769 17.2974 62.7809 17.4149 62.7657 17.5304C62.7504 17.6459 62.7084 17.7563 62.6429 17.8527C62.5775 17.949 62.4904 18.0288 62.3887 18.0856L62.147 17.7788C62.2053 17.7484 62.2556 17.7047 62.2939 17.6512C62.3321 17.5978 62.3572 17.536 62.3671 17.471C62.377 17.406 62.3714 17.3396 62.3509 17.2772C62.3303 17.2147 62.2953 17.158 62.2487 17.1117C62.0722 16.8843 61.8791 16.846 61.6711 17.022C61.2604 17.3602 62.3406 18.1558 61.6083 18.714C61.5262 18.7863 61.4291 18.8395 61.3239 18.8697C61.2187 18.9 61.1082 18.9065 61.0002 18.8888C60.8922 18.8711 60.7895 18.8297 60.6995 18.7675C60.6094 18.7053 60.5343 18.6239 60.4796 18.5291C60.388 18.443 60.3181 18.3364 60.2756 18.2181C60.2331 18.0998 60.2192 17.9731 60.235 17.8484C60.2508 17.7237 60.2959 17.6045 60.3666 17.5005C60.4373 17.3966 60.5316 17.3108 60.6417 17.2503L60.8834 17.5598C60.8222 17.595 60.7698 17.6436 60.7301 17.7019C60.6904 17.7603 60.6645 17.8269 60.6543 17.8967C60.644 17.9666 60.6498 18.0378 60.671 18.1051C60.6923 18.1724 60.7286 18.234 60.7771 18.2852C60.9827 18.5509 61.1782 18.5536 61.3477 18.4238C61.8666 18.0417 60.7254 17.2747 61.4216 16.7291V16.7296ZM61.18 15.2622L60.9116 15.5038L60.201 14.7378L59.6738 15.221L60.3169 15.9173L60.0536 16.159L59.4035 15.4872L58.838 16.0093L59.5463 16.7781L59.2778 17.0197L58.3108 15.9658L60.2051 14.2157L61.18 15.2622ZM58.4725 30.8218C58.4725 32.5548 58.023 34.1359 56.0552 34.1359C54.0875 34.1359 53.6379 32.5548 53.6379 30.8121C53.6379 29.0693 54.0972 27.4883 56.0552 27.4883C58.0133 27.4883 58.4651 29.0666 58.4651 30.8218H58.4725ZM58.6056 12.6272C58.7068 12.7102 58.7883 12.8146 58.8442 12.9329C58.9002 13.0512 58.9292 13.1804 58.9292 13.3113C58.9292 13.4421 58.9002 13.5713 58.8442 13.6896C58.7883 13.8079 58.7068 13.9123 58.6056 13.9953L58.3108 13.7269C58.5525 13.4201 58.5959 13.1179 58.3543 12.8975C58.0378 12.6097 57.6871 12.8301 57.3175 13.2385C56.9479 13.6469 56.763 14.0193 57.0758 14.3067C57.3175 14.5317 57.6303 14.4689 57.9024 14.1736L58.2092 14.4421C58.1376 14.5531 58.0418 14.6466 57.929 14.7155C57.8162 14.7844 57.6893 14.827 57.5578 14.84C57.4263 14.853 57.2935 14.8361 57.1694 14.7907C57.0453 14.7452 56.9331 14.6723 56.8411 14.5774C56.2682 14.0577 56.5755 13.4801 57.0347 12.9747C57.494 12.4692 58.0258 12.1019 58.5987 12.6268L58.6056 12.6272ZM56.8749 11.195L55.2869 13.2279L54.9773 12.9862L56.5653 10.9533L56.8749 11.195ZM53.9595 9.11862L54.3004 9.36026L53.5945 11.4828L55.2864 10.0325L55.6297 10.2741L53.546 11.9809L53.1592 11.7244L53.9595 9.11862ZM52.2361 8.12757C52.345 8.16575 52.4435 8.22898 52.5235 8.31218C52.6034 8.39538 52.6628 8.49622 52.6966 8.60656C52.7305 8.71689 52.7379 8.83364 52.7184 8.94739C52.6988 9.06113 52.6528 9.16869 52.584 9.26138C52.5475 9.35717 52.4894 9.44329 52.4144 9.51315C52.3393 9.58301 52.2493 9.63474 52.1511 9.66436C52.053 9.69398 51.9493 9.70072 51.8482 9.68404C51.747 9.66737 51.651 9.62773 51.5676 9.56817L51.7986 10.8276L51.3634 10.586L51.2012 9.32191L50.7054 10.2284L50.3621 10.0399L51.5999 7.77597L52.2361 8.12757ZM48.7829 28.2109V27.5483H52.602V28.2109H51.0312V34.0726H50.3594V28.2109H48.7829ZM49.0971 6.62045L50.4074 7.19567L50.26 7.53156L49.305 7.11112L49.0246 7.76858L49.8923 8.1479L49.7472 8.47686L48.8795 8.09754L48.5699 8.80074L49.537 9.22119L49.3896 9.55708L48.0576 8.98186L49.0971 6.62045ZM45.6412 7.16887L46.0108 7.29454C45.9771 7.35889 45.9588 7.43022 45.9575 7.50285C45.9562 7.57549 45.9719 7.64743 46.0033 7.71294C46.0347 7.77845 46.081 7.83572 46.1384 7.88019C46.1959 7.92466 46.2629 7.95511 46.3342 7.9691C46.6507 8.07537 46.8175 7.9691 46.8831 7.76627C47.0933 7.14485 45.7206 7.14023 45.996 6.29888C46.0191 6.19177 46.0666 6.09142 46.1348 6.00563C46.2029 5.91983 46.2899 5.85089 46.389 5.80415C46.4881 5.75741 46.5967 5.73413 46.7062 5.73612C46.8158 5.7381 46.9234 5.7653 47.0208 5.8156C47.1352 5.83693 47.2432 5.88461 47.336 5.95488C47.4288 6.02515 47.504 6.11607 47.5556 6.22043C47.6072 6.3248 47.6338 6.43975 47.6333 6.55617C47.6327 6.6726 47.6051 6.7873 47.5526 6.89119L47.1829 6.76783C47.2152 6.71013 47.2332 6.64558 47.2355 6.57953C47.2378 6.51348 47.2243 6.44784 47.1962 6.38804C47.168 6.32824 47.126 6.276 47.0737 6.23567C47.0213 6.19534 46.9601 6.16806 46.8951 6.15611C46.6244 6.06371 46.4432 6.13902 46.3656 6.39775C46.2108 6.90598 47.5526 6.96835 47.255 7.84805C47.2266 7.95353 47.1754 8.05152 47.1051 8.13511C47.0347 8.21871 46.9469 8.2859 46.8479 8.33195C46.7488 8.37801 46.6409 8.40182 46.5316 8.40171C46.4223 8.4016 46.3144 8.37758 46.2155 8.33133C46.0904 8.3107 45.9721 8.26058 45.8703 8.18514C45.7685 8.1097 45.6861 8.01109 45.63 7.89748C45.5739 7.78387 45.5456 7.65853 45.5476 7.53183C45.5495 7.40512 45.5816 7.28071 45.6412 7.16887ZM43.8171 19.4292H44.6709L47.6875 24.8413V19.4292H48.3907V25.9557H47.5641L44.5106 20.478V25.953H43.8074L43.8171 19.4292ZM45.2096 27.4883C46.8096 27.4883 47.4736 28.5472 47.4736 29.7822H46.7685C46.7394 28.7815 46.2603 28.1508 45.2092 28.1508C43.904 28.1508 43.5584 29.2819 43.5584 30.8098C43.5584 32.3377 43.9645 33.4687 45.2092 33.4687C46.2899 33.4687 46.7902 32.6325 46.8092 31.1725H44.9745V30.4998H47.5027V34.0675H47.0531L46.9201 32.876C46.5551 33.7122 46.0547 34.1304 45.1676 34.1304C43.374 34.1304 42.8639 32.5493 42.8639 30.8065C42.8639 29.0638 43.2918 27.4878 45.199 27.4878L45.2096 27.4883ZM41.9727 4.57552L43.3481 4.83195L43.2807 5.19233L42.285 5.00752L42.1543 5.71349L43.0783 5.88768L43.0109 6.24066L42.0868 6.06186L41.8789 7.17857L41.4968 7.10835L41.9727 4.57552ZM39.2532 4.23455L40.6772 4.38194L40.6384 4.74694L39.5965 4.64067L39.5216 5.3545L40.4642 5.45106L40.4328 5.82068L39.4902 5.72412L39.4103 6.48785L40.4471 6.59642L40.411 6.96142L38.988 6.81126L39.2532 4.23455ZM40.9937 22.2937V19.4292H41.6751V25.9557H40.9937V22.9461H38.1564V25.953H37.4633V19.4269H38.1564V22.2914L40.9937 22.2937ZM40.9068 27.5488V34.0749H40.0802L37.0309 28.5999V34.0749H36.3286V27.5483H37.1796L40.1985 32.9633V27.5483L40.9068 27.5488ZM36.1378 4.12551H36.5296L36.5125 5.21081L37.4365 5.22513L37.4559 4.13983H37.845L37.8038 6.71886H37.412L37.4314 5.58274L36.5032 5.57535L36.4861 6.71147H36.0943L36.1378 4.12551ZM33.8803 4.21237C34.0101 4.19442 34.1423 4.20574 34.2671 4.24551C34.3919 4.28528 34.5063 4.35249 34.6018 4.44221C34.6972 4.53193 34.7714 4.64188 34.8189 4.76401C34.8663 4.88613 34.8858 5.01733 34.876 5.14797L34.4796 5.17939C34.4287 4.78759 34.2379 4.55335 33.9067 4.57876C33.4811 4.61249 33.3984 5.01861 33.4446 5.56749C33.4908 6.11638 33.6331 6.50771 34.0587 6.47399C34.3922 6.44719 34.5567 6.17921 34.5276 5.78095L34.9263 5.74953C34.9725 6.33676 34.7452 6.78631 34.0878 6.83991C33.3167 6.90043 33.1064 6.27901 33.051 5.59983C32.9955 4.92066 33.1092 4.26551 33.8803 4.20267V4.21237ZM33.0916 19.376C35.0691 19.376 35.509 20.9571 35.509 22.7119C35.509 24.4666 35.0594 26.0237 33.0916 26.0237C31.1239 26.0237 30.6743 24.4454 30.6743 22.6998C30.6743 20.9543 31.1364 19.3663 33.0916 19.3663V19.376ZM34.1963 27.5585V34.0846H33.5033V27.558L34.1963 27.5585ZM31.8109 33.4295V34.0823H28.9972V27.5557H29.6861V33.4271L31.8109 33.4295ZM29.3451 4.91142L29.8284 7.08709L30.5731 6.92538L30.648 7.27606L29.5239 7.5177L28.9621 4.99366L29.3451 4.91142ZM27.0946 5.49311L28.5643 7.74132L28.1702 7.8596L27.8929 7.41744L27.0082 7.6905V8.21259L26.6214 8.33086L26.59 5.6428L27.0946 5.49311ZM26.5438 25.3006C27.7959 25.4748 28.0523 25.0756 28.0523 24.0462V19.4292H28.7366V24.0074C28.7366 25.4942 28.4007 26.1831 26.5346 25.941L26.5438 25.3006ZM27.3029 33.4202V34.0731H24.4915V27.546H25.1845V33.4174L27.3029 33.4202ZM23.457 6.81588L25.1055 8.23476L24.3663 6.43887L24.7239 6.28918L25.715 8.66999L25.2848 8.8511L23.6164 7.42992L24.3658 9.23551L24.0055 9.38521L23.0144 7.00439L23.457 6.81588ZM20.8974 8.02454C21.608 7.64014 22.0525 8.12388 22.3759 8.72774C22.6993 9.33161 22.8592 9.96043 22.1486 10.3425C21.438 10.7246 20.9834 10.2501 20.6701 9.64948C20.3568 9.04885 20.1938 8.40941 20.8974 8.03009V8.02454ZM22.369 30.4083V31.0611H19.7899V33.4059H22.6134V34.0684H19.096V27.5414H22.6129V28.204H19.7899V30.4055L22.369 30.4083ZM18.1872 9.66335C18.2748 9.58689 18.3789 9.5317 18.4914 9.50209C18.6039 9.47248 18.7217 9.46924 18.8356 9.49263C18.9496 9.51601 19.0566 9.56539 19.1483 9.63692C19.24 9.70844 19.314 9.80018 19.3644 9.90498L19.0502 10.1129C19.0238 10.0526 18.9834 9.99944 18.9325 9.95771C18.8816 9.91597 18.8215 9.88684 18.7572 9.8727C18.6929 9.85856 18.6262 9.85981 18.5624 9.87634C18.4987 9.89287 18.4398 9.92421 18.3905 9.96782C18.1488 10.1272 18.1003 10.3185 18.2648 10.5384C18.5744 10.9709 19.437 9.94379 19.9567 10.7149C20.0236 10.8015 20.0705 10.9018 20.0939 11.0086C20.1174 11.1155 20.1168 11.2262 20.0923 11.3328C20.0678 11.4394 20.0199 11.5393 19.9521 11.6251C19.8843 11.711 19.7983 11.7807 19.7003 11.8293C19.6084 11.9148 19.4976 11.9774 19.377 12.0121C19.2563 12.0468 19.1292 12.0526 19.0059 12.0291C18.8826 12.0056 18.7666 11.9534 18.6672 11.8767C18.5678 11.8 18.4879 11.701 18.4339 11.5877L18.7573 11.3701C18.7884 11.4346 18.8338 11.4911 18.8901 11.5354C18.9463 11.5797 19.012 11.6104 19.082 11.6254C19.1521 11.6403 19.2246 11.639 19.294 11.6216C19.3635 11.6042 19.428 11.5711 19.4827 11.5248C19.7599 11.34 19.7752 11.1428 19.6569 10.9663C19.2873 10.4201 18.4482 11.5078 17.9649 10.7754C17.8904 10.6939 17.8361 10.596 17.8065 10.4896C17.7768 10.3833 17.7727 10.2714 17.7943 10.1631C17.816 10.0548 17.8628 9.95311 17.931 9.86629C17.9993 9.77947 18.087 9.70994 18.1872 9.66335ZM15.8258 11.4426C15.9027 11.3572 15.9986 11.2908 16.1057 11.249C16.2128 11.2071 16.3282 11.1907 16.4427 11.2013C16.5573 11.2118 16.6678 11.2489 16.7654 11.3097C16.8631 11.3704 16.9452 11.4531 17.0053 11.5512C17.0821 11.6203 17.1416 11.7064 17.1791 11.8027C17.2165 11.899 17.2308 12.0027 17.2209 12.1055C17.211 12.2083 17.1771 12.3074 17.1219 12.3947C17.0667 12.482 16.9918 12.5552 16.9032 12.6083L18.1576 12.8767L17.7709 13.1886L16.5336 12.8592L17.1837 13.6617L16.8792 13.9034L15.257 11.8995L15.8258 11.4426ZM14.2738 12.7695L14.5275 13.0329L13.7758 13.7583L14.2697 14.2781L14.9539 13.6206L15.1956 13.8793L14.5113 14.5368L15.0454 15.0912L15.799 14.364L16.0406 14.6273L15.0089 15.6221L13.2491 13.761L14.2738 12.7695ZM11.7526 15.3634C11.8158 15.2633 11.902 15.1798 12.0039 15.1197C12.1059 15.0596 12.2207 15.0247 12.3388 15.0179C12.457 15.011 12.5751 15.0324 12.6833 15.0803C12.7915 15.1281 12.8868 15.2011 12.9612 15.2931C13.0617 15.3517 13.1464 15.4338 13.2082 15.5323C13.2701 15.6308 13.3071 15.7428 13.3162 15.8587C13.3253 15.9746 13.3061 16.0911 13.2604 16.198C13.2147 16.3049 13.1437 16.3992 13.0536 16.4727L12.812 16.7531L13.4671 17.3283L13.2084 17.6208L11.2748 15.9289L11.7526 15.3634ZM10.6746 27.5483L11.9683 33.0926L13.3147 27.5483H14.1098L15.4658 33.0926L16.7517 27.5483H17.4549L15.8738 34.0749H15.0593L13.6912 28.5708L12.3569 34.0749H11.5567L9.95435 27.5483H10.6746ZM19.1759 51.8292C19.1759 48.7206 19.9013 45.815 23.4446 45.815C26.4417 45.815 27.6578 47.8742 27.6578 50.432H25.8355C25.7431 48.6301 24.9341 47.488 23.445 47.488C21.4944 47.488 20.9797 49.3106 20.9797 51.8389C20.9797 54.3671 21.4944 56.1897 23.445 56.1897C24.9697 56.1897 25.8189 55.0296 25.8355 53.2092H27.6582C27.6582 55.895 26.4496 57.8623 23.445 57.8623C19.911 57.8461 19.1759 54.9404 19.1759 51.8296V51.8292ZM27.375 69.3635L26.9666 69.2327L27.624 67.2049L26.3017 69.0216L25.8933 68.8885V66.6477L25.2465 68.6663L24.838 68.5332L25.7228 65.8137L26.3031 66.0022L26.286 68.3928L27.6721 66.4467L28.2547 66.6352L27.375 69.3635ZM31.2426 68.7591C31.0975 69.4845 30.7834 70.154 29.9083 69.9798C29.0332 69.8056 28.9898 69.0756 29.1349 68.3359C29.2799 67.5962 29.6181 66.9388 30.4747 67.1129C31.3313 67.2871 31.3932 68.012 31.2435 68.7591H31.2426ZM34.5202 70.5504L34.0028 70.5042L33.094 68.2491L32.9031 70.4076L32.4735 70.3698L32.7151 67.5223L33.2543 67.5685L34.1465 69.8019L34.335 67.6651L34.7628 67.7011L34.5202 70.5504ZM31.0393 52.5314V57.7186H29.2559V45.9434H31.0412V50.8917H35.2738V45.9434H37.0577V57.7177H35.2724V52.5305L31.0393 52.5314ZM36.9662 70.6003H36.5393L36.5005 68.1493H35.867V67.7431L37.559 67.7163V68.1225H36.9232L36.9662 70.6003ZM40.1957 70.4044L39.2532 69.3482L39.3646 70.4866L38.9321 70.5278L38.6549 67.6803L39.4597 67.6031C40.3274 67.5186 40.4554 68.0864 40.4873 68.4228C40.5147 68.5337 40.516 68.6494 40.4912 68.7609C40.4663 68.8724 40.416 68.9766 40.3441 69.0654C40.2722 69.1542 40.1807 69.2251 40.0768 69.2725C39.9729 69.32 39.8594 69.3428 39.7453 69.339L40.7409 70.3517L40.1957 70.4044ZM45.1172 50.9023V52.5411H40.8052V56.0525H45.5719V57.7278H39.0453V45.9462H45.5719V47.6187H40.8052V50.894L45.1172 50.9023ZM42.1515 70.1387L41.6123 67.3301L43.1689 67.0302L43.246 67.4313L42.1099 67.6489L42.255 68.4246L43.2848 68.2264L43.3597 68.6182L42.3298 68.8164L42.492 69.6527L43.6281 69.4351L43.7053 69.8338L42.1515 70.1387ZM46.6063 69.0534L46.3065 68.5577L45.3201 68.8478V69.4282L44.8922 69.5538V66.571L45.4383 66.4116L47.036 68.9255L46.6063 69.0534ZM48.2743 68.4759L47.2278 65.817L47.6316 65.6599L48.5404 67.9418L49.3258 67.6323L49.4732 68.0019L48.2743 68.4759ZM53.5002 47.6178H48.8883V50.8931H53.1763V52.5319H48.8883V57.719H47.1197V45.9434H53.5058L53.5002 47.6178ZM8.60801 40.1422V39.6589H66.0484V40.1422H8.60801Z" fill="white"/>
<path d="M45.3182 68.4768L46.1184 68.2425L45.296 66.8929L45.3182 68.4768Z" fill="white"/>
</svg>
