<svg width="192" height="24" viewBox="0 0 192 24" fill="none" xmlns="http://www.w3.org/2000/svg">
<path d="M2.25 18.072C2.988 18.036 4.122 18 4.716 18C5.328 18 6.588 18.036 7.362 18.054L7.524 17.226L7.47 17.154C7.164 17.19 6.804 17.208 6.48 17.208C5.742 17.208 5.454 16.866 5.454 15.984C5.454 13.05 5.598 8.676 5.742 7.236C8.352 7.362 8.424 7.416 8.784 9.576L9.63 9.504C9.504 8.55 9.396 7.308 9.36 6.462L9.198 6.318L7.668 6.516H2.088L0.594 6.318L0.432 6.462C0.396 7.308 0.288 8.55 0.162 9.576L1.008 9.504C1.314 7.38 1.386 7.326 4.194 7.236V15.084C4.194 16.992 4.068 17.154 2.394 17.298L2.25 18.072ZM13.7502 18.216C13.7862 18.126 15.3882 18 16.4862 18C17.0262 18 18.0162 18.036 18.0162 18.054L18.1782 17.226L18.1422 17.154C17.9442 17.172 17.6022 17.208 17.3322 17.208C16.7022 17.208 16.5402 16.956 16.5402 15.984L16.6122 12.762C17.8182 12.654 19.2402 12.564 19.6002 12.564C20.2122 12.564 21.5082 12.582 22.3362 12.582V15.3C22.3362 16.884 22.1022 17.208 20.9682 17.226L20.8062 18.036C21.4542 18.018 22.4262 18 22.8762 18C23.4522 18 24.4782 18.036 25.0902 18.054L25.2522 17.226L25.2162 17.154C25.0182 17.172 24.6762 17.208 24.4062 17.208C23.7762 17.208 23.6142 16.974 23.6142 16.092C23.6142 14.562 23.7222 10.998 23.8662 8.208C23.9022 7.506 24.1362 7.308 25.0182 7.182L25.0902 6.372C24.3702 6.462 23.4522 6.534 22.9302 6.534C22.3542 6.534 21.1662 6.498 21.1662 6.48L21.0402 7.272L21.0762 7.344C21.2562 7.326 21.5262 7.308 21.6882 7.308C22.2282 7.308 22.3542 7.506 22.3542 8.28L22.3362 11.556C21.1122 11.7 20.4642 11.736 19.6722 11.736L16.6482 11.718L16.7562 8.802C16.8102 7.506 16.9362 7.344 17.9442 7.182L18.0162 6.372C17.3682 6.462 16.5402 6.534 16.0902 6.534C15.5862 6.534 14.6502 6.498 14.0922 6.48L13.9662 7.272L14.0022 7.344C14.1822 7.326 14.4702 7.308 14.6142 7.308C15.1542 7.308 15.2802 7.506 15.2802 8.28L15.2622 15.84C15.2622 16.848 14.9742 17.172 13.8582 17.388L13.7502 18.216ZM38.6785 14.904L37.8865 14.994C37.5985 16.974 37.2565 17.19 34.4125 17.19C33.1165 17.19 32.9905 17.082 32.9905 16.11L33.0625 12.672C33.5125 12.6 34.0705 12.546 34.4485 12.546C35.1505 12.546 36.3025 12.582 36.9685 12.6L37.2205 11.538L37.1485 11.448C36.3385 11.556 35.3485 11.646 34.9525 11.646L33.0985 11.628L33.2425 8.136C33.2605 7.47 33.3325 7.434 34.5025 7.434C37.0405 7.434 37.2565 7.542 37.2565 8.712C37.2565 8.892 37.2385 9.27 37.2205 9.486L38.0845 9.414C38.1385 8.514 38.3005 7.308 38.4985 6.426L38.4445 6.318C37.2565 6.48 35.9065 6.534 33.0445 6.534C32.2525 6.534 31.1545 6.498 30.5425 6.48L30.4165 7.272L30.4525 7.344C30.6325 7.326 30.9205 7.308 31.0645 7.308C31.6045 7.308 31.7305 7.506 31.7305 8.28L31.7125 15.84C31.7125 16.866 31.3885 17.208 30.3085 17.352L30.2005 18.18C30.9025 18.072 31.9465 18 32.7025 18C33.6925 18 35.9965 18.054 38.1565 18.126L38.2465 18.018C38.3545 17.046 38.5705 15.75 38.7325 14.994L38.6785 14.904ZM52.2156 18C53.1336 18 53.8536 18.18 54.6456 18.18C56.9136 18.18 58.8756 16.578 58.8756 14.706C58.8756 13.374 57.8316 12.348 56.0856 11.97C57.4176 11.394 58.1736 10.386 58.1736 9.198C58.1736 7.434 56.9136 6.462 54.6276 6.462C54.6276 6.462 53.1696 6.534 52.5036 6.534C51.8196 6.534 50.5056 6.48 50.5056 6.48L50.3796 7.272L50.4156 7.344C50.4156 7.344 50.8116 7.308 51.0276 7.308C51.5676 7.308 51.6936 7.506 51.6936 8.28L51.6756 15.84C51.6756 16.848 51.3876 17.172 50.2716 17.388L50.1636 18.216C50.1636 18.216 51.3156 18 52.2156 18ZM53.0616 11.682C53.0976 10.188 53.1516 8.82 53.2236 7.65C53.2416 7.326 53.2956 7.236 53.5476 7.236C55.7076 7.236 56.7156 7.956 56.7156 9.504C56.7156 11.43 55.0236 11.826 55.0236 11.826C54.7536 11.826 53.0616 11.682 53.0616 11.682ZM53.0256 12.636L54.8976 12.6C56.4996 12.888 57.3276 13.734 57.3276 15.03C57.3276 16.398 56.4456 17.262 55.0056 17.262C53.5116 17.262 52.9536 16.92 52.9536 16.002L53.0256 12.636ZM68.7158 18.18C68.7158 18.18 70.0118 18 71.3978 18C72.0098 18 73.3058 18.054 73.3058 18.054L73.4318 17.316L73.3958 17.244C72.3518 17.154 71.9558 16.866 71.6678 15.966C70.3178 11.916 68.8058 6.318 68.8058 6.318H68.6618L67.5278 6.624L64.0178 15.822C63.6218 16.83 63.2798 17.136 62.6138 17.208L62.4698 18.054C62.4698 18.054 63.5858 18 64.4498 18C65.6378 18 66.9518 18.126 66.9518 18.126L67.0598 17.352L67.0238 17.28H65.9978C65.2418 17.28 64.9178 17.064 64.9178 16.542C64.9178 16.38 64.9718 16.164 65.0798 15.84L65.7458 13.968C66.1598 13.914 67.0058 13.824 67.7078 13.824C68.2118 13.824 69.1478 13.824 69.5798 13.842L70.1738 15.804C70.2818 16.146 70.3358 16.434 70.3358 16.668C70.3358 17.1 69.9758 17.262 68.7338 17.352L68.6618 18.054L68.7158 18.18ZM66.0698 13.086L67.7798 8.28H67.9058L69.3278 12.996C68.9138 13.032 68.1398 13.086 67.6538 13.086H66.0698ZM85.3476 18.288L86.8776 18.09L86.9856 17.478L86.9136 17.406C85.9416 17.406 85.3836 17.01 84.6816 15.876L82.7016 12.744C84.3756 11.988 85.3476 10.728 85.3476 9.288C85.3476 7.542 83.9616 6.462 81.7296 6.462C81.7296 6.462 80.1276 6.534 79.5156 6.534C78.8316 6.534 77.5176 6.48 77.5176 6.48L77.3916 7.272L77.4276 7.344C77.4276 7.344 77.8236 7.308 78.0396 7.308C78.5616 7.308 78.7056 7.506 78.7056 8.28L78.6876 15.84C78.6876 16.884 78.4356 17.136 77.3196 17.262L77.1576 18.072C77.1576 18.072 78.0756 18.018 78.9216 18.018C79.7856 18.018 81.1356 18.054 81.1356 18.072L81.2976 17.316L81.2616 17.244C80.1096 17.244 79.9656 17.064 79.9656 15.768L80.0196 13.086H81.5136L83.4396 16.578C84.0156 17.622 84.7536 18.288 85.3476 18.288ZM81.9096 12.258L80.0556 12.078C80.0736 10.818 80.1276 9.558 80.2356 7.65C80.2536 7.326 80.3076 7.236 80.5596 7.236C82.7556 7.236 83.8536 8.028 83.8536 9.612C83.8536 11.736 81.9096 12.258 81.9096 12.258ZM93.1115 18C94.0295 18 94.7495 18.18 95.5415 18.18C97.8095 18.18 99.7715 16.578 99.7715 14.706C99.7715 13.374 98.7275 12.348 96.9815 11.97C98.3135 11.394 99.0695 10.386 99.0695 9.198C99.0695 7.434 97.8095 6.462 95.5235 6.462C95.5235 6.462 94.0655 6.534 93.3995 6.534C92.7155 6.534 91.4015 6.48 91.4015 6.48L91.2755 7.272L91.3115 7.344C91.3115 7.344 91.7075 7.308 91.9235 7.308C92.4635 7.308 92.5895 7.506 92.5895 8.28L92.5715 15.84C92.5715 16.848 92.2835 17.172 91.1675 17.388L91.0595 18.216C91.0595 18.216 92.2115 18 93.1115 18ZM93.9575 11.682C93.9935 10.188 94.0475 8.82 94.1195 7.65C94.1375 7.326 94.1915 7.236 94.4435 7.236C96.6035 7.236 97.6115 7.956 97.6115 9.504C97.6115 11.43 95.9195 11.826 95.9195 11.826C95.6495 11.826 93.9575 11.682 93.9575 11.682ZM93.9215 12.636L95.7935 12.6C97.3955 12.888 98.2235 13.734 98.2235 15.03C98.2235 16.398 97.3415 17.262 95.9015 17.262C94.4075 17.262 93.8495 16.92 93.8495 16.002L93.9215 12.636ZM113.158 14.904L112.366 14.994C112.078 16.974 111.736 17.19 108.892 17.19C107.596 17.19 107.47 17.082 107.47 16.11L107.542 12.672C107.992 12.6 108.55 12.546 108.928 12.546C109.63 12.546 110.782 12.582 111.448 12.6L111.7 11.538L111.628 11.448C110.818 11.556 109.828 11.646 109.432 11.646L107.578 11.628L107.722 8.136C107.74 7.47 107.812 7.434 108.982 7.434C111.52 7.434 111.736 7.542 111.736 8.712C111.736 8.892 111.718 9.27 111.7 9.486L112.564 9.414C112.618 8.514 112.78 7.308 112.978 6.426L112.924 6.318C111.736 6.48 110.386 6.534 107.524 6.534C106.732 6.534 105.634 6.498 105.022 6.48L104.896 7.272L104.932 7.344C105.112 7.326 105.4 7.308 105.544 7.308C106.084 7.308 106.21 7.506 106.21 8.28L106.192 15.84C106.192 16.866 105.868 17.208 104.788 17.352L104.68 18.18C105.382 18.072 106.426 18 107.182 18C108.172 18 110.476 18.054 112.636 18.126L112.726 18.018C112.834 17.046 113.05 15.75 113.212 14.994L113.158 14.904ZM126.366 18.288L127.896 18.09L128.004 17.478L127.932 17.406C126.96 17.406 126.402 17.01 125.7 15.876L123.72 12.744C125.394 11.988 126.366 10.728 126.366 9.288C126.366 7.542 124.98 6.462 122.748 6.462C122.748 6.462 121.146 6.534 120.534 6.534C119.85 6.534 118.536 6.48 118.536 6.48L118.41 7.272L118.446 7.344C118.446 7.344 118.842 7.308 119.058 7.308C119.58 7.308 119.724 7.506 119.724 8.28L119.706 15.84C119.706 16.884 119.454 17.136 118.338 17.262L118.176 18.072C118.176 18.072 119.094 18.018 119.94 18.018C120.804 18.018 122.154 18.054 122.154 18.072L122.316 17.316L122.28 17.244C121.128 17.244 120.984 17.064 120.984 15.768L121.038 13.086H122.532L124.458 16.578C125.034 17.622 125.772 18.288 126.366 18.288ZM122.928 12.258L121.074 12.078C121.092 10.818 121.146 9.558 121.254 7.65C121.272 7.326 121.326 7.236 121.578 7.236C123.774 7.236 124.872 8.028 124.872 9.612C124.872 11.736 122.928 12.258 122.928 12.258ZM141.425 18.216C144.035 18.216 145.871 16.758 145.871 14.706C145.871 13.068 144.107 12.24 142.541 11.43C141.263 10.764 140.093 10.098 140.093 9.018C140.093 8.028 141.047 7.29 142.361 7.29C143.981 7.29 144.503 7.704 144.503 8.964C144.503 9.522 144.449 9.9 144.449 9.9L144.557 9.99L145.259 9.918C145.367 8.262 145.655 6.876 145.655 6.876L145.601 6.768C145.601 6.768 144.449 6.318 142.847 6.318C140.507 6.318 138.707 7.776 138.707 9.666C138.707 11.232 140.201 12.06 141.641 12.816C143.027 13.536 144.377 14.184 144.377 15.354C144.377 16.578 143.369 17.334 141.875 17.334C139.931 17.334 139.535 16.794 139.535 14.202L138.725 14.292C138.725 16.038 138.509 17.424 138.509 17.424L138.599 17.604C138.599 17.604 139.733 18.216 141.425 18.216ZM150.952 18.216C150.988 18.126 152.59 18 153.688 18C154.228 18 155.218 18.036 155.218 18.054L155.38 17.226L155.344 17.154C155.146 17.172 154.804 17.208 154.534 17.208C153.904 17.208 153.742 16.956 153.742 15.984L153.814 12.762C155.02 12.654 156.442 12.564 156.802 12.564C157.414 12.564 158.71 12.582 159.538 12.582V15.3C159.538 16.884 159.304 17.208 158.17 17.226L158.008 18.036C158.656 18.018 159.628 18 160.078 18C160.654 18 161.68 18.036 162.292 18.054L162.454 17.226L162.418 17.154C162.22 17.172 161.878 17.208 161.608 17.208C160.978 17.208 160.816 16.974 160.816 16.092C160.816 14.562 160.924 10.998 161.068 8.208C161.104 7.506 161.338 7.308 162.22 7.182L162.292 6.372C161.572 6.462 160.654 6.534 160.132 6.534C159.556 6.534 158.368 6.498 158.368 6.48L158.242 7.272L158.278 7.344C158.458 7.326 158.728 7.308 158.89 7.308C159.43 7.308 159.556 7.506 159.556 8.28L159.538 11.556C158.314 11.7 157.666 11.736 156.874 11.736L153.85 11.718L153.958 8.802C154.012 7.506 154.138 7.344 155.146 7.182L155.218 6.372C154.57 6.462 153.742 6.534 153.292 6.534C152.788 6.534 151.852 6.498 151.294 6.48L151.168 7.272L151.204 7.344C151.384 7.326 151.672 7.308 151.816 7.308C152.356 7.308 152.482 7.506 152.482 8.28L152.464 15.84C152.464 16.848 152.176 17.172 151.06 17.388L150.952 18.216ZM172.064 18.216C175.466 18.216 178.094 15.444 178.094 11.862C178.094 8.586 176.006 6.318 173 6.318C169.67 6.318 167.078 9.09 167.078 12.654C167.078 15.948 169.112 18.216 172.064 18.216ZM172.622 17.298C170.264 17.298 168.626 15.156 168.626 12.078C168.626 9.306 170.156 7.398 172.388 7.398C174.818 7.398 176.492 9.54 176.492 12.618C176.492 15.39 174.908 17.298 172.622 17.298ZM182.835 18.144C182.871 18.09 184.545 18 185.517 18C186.129 18 187.173 18.036 187.173 18.054L187.335 17.226L187.299 17.154C187.299 17.154 186.687 17.208 186.327 17.208C185.625 17.208 185.535 17.01 185.535 15.372L185.571 13.608H187.083C189.225 13.608 191.205 11.718 191.205 9.666C191.205 7.596 189.837 6.462 187.353 6.462C187.353 6.462 185.571 6.534 185.085 6.534C184.401 6.534 183.087 6.48 183.087 6.48L182.961 7.272L182.997 7.344C182.997 7.344 183.393 7.308 183.609 7.308C184.131 7.308 184.275 7.506 184.275 8.28L184.257 15.84C184.257 16.866 184.005 17.136 182.961 17.316L182.835 18.144ZM187.515 12.816L185.607 12.546C185.643 10.998 185.715 9.198 185.823 7.596C185.841 7.344 185.877 7.344 186.309 7.344C188.649 7.344 189.693 8.172 189.693 10.008C189.693 11.628 188.955 12.582 187.515 12.816Z" fill="#C2B29E"/>
</svg>
