<svg width="71" height="55" viewBox="0 0 71 55" fill="none" xmlns="http://www.w3.org/2000/svg">
<path d="M63.1141 29.8656C63.0809 29.8365 63.0463 29.8059 63.0132 29.7767C63.473 24.3149 62.3846 19.1429 59.7004 14.3045C59.5188 13.9768 59.5188 13.767 59.7249 13.4408C60.4356 12.312 60.4443 11.1264 59.7581 9.98744C59.0647 8.83682 57.9878 8.10421 56.6846 8.43192C55.6005 8.70574 55.0196 8.28044 54.4055 7.60026C54.3204 7.50705 54.2281 7.41529 54.1243 7.34538C53.8274 7.14438 53.7957 6.90989 53.8807 6.5545C54.2123 5.16647 53.6284 3.79009 52.4305 3.01524C51.2541 2.25495 49.863 2.28845 48.7487 3.15798C48.4517 3.39101 48.2441 3.36771 47.9356 3.21624C45.0856 1.82092 42.0698 1.02131 38.9185 0.76351C34.0575 0.365889 29.417 1.21065 25.0302 3.39393C24.7852 3.51627 24.6352 3.50608 24.4176 3.3211C23.2009 2.28263 21.6958 2.19815 20.4316 3.06767C19.1846 3.92554 18.6901 5.37038 19.1731 6.85745C19.2754 7.1706 19.2134 7.33372 18.99 7.5522C18.7925 7.74445 18.595 7.93817 18.4004 8.13334C17.2644 7.90758 16.1602 7.71969 15.0919 7.57259C7.33188 6.50061 2.46652 7.61628 1.01917 10.7987C-0.428184 13.9797 1.90286 18.4365 7.76003 23.6857V24.7854C8.13628 25.9724 8.82392 26.8623 10.032 27.2876C10.1343 27.324 10.2064 27.5702 10.2165 27.7245C10.2698 28.4674 10.2655 29.2175 10.339 29.9573C11.018 36.832 13.8637 42.6332 18.8516 47.3551C19.1154 47.6041 19.1702 47.8051 19.0851 48.1489C18.7565 49.4699 19.2769 50.7924 20.3999 51.5891C21.5214 52.3858 22.9255 52.428 24.0442 51.6474C24.37 51.4201 24.5978 51.407 24.951 51.5876C27.9221 53.1169 31.0863 53.9879 34.402 54.2618C39.3582 54.671 44.0822 53.7971 48.5339 51.5236C48.7732 51.4012 48.926 51.3954 49.1523 51.5745C50.3676 52.5402 51.8351 52.5955 53.059 51.7493C54.28 50.906 54.7716 49.4961 54.3262 48.0032C54.2382 47.709 54.2844 47.5488 54.4992 47.3478C54.9691 46.905 55.4203 46.4506 55.8528 45.9874C57.7398 46.2452 59.4568 46.3749 60.9921 46.3749C65.7378 46.3749 68.7694 45.15 69.8593 42.7526C71.3052 39.5731 68.9727 35.1162 63.1141 29.8656ZM61.475 28.4543C61.4649 28.7718 61.449 29.0893 61.4274 29.4082C61.4 29.8073 61.3611 30.2049 61.315 30.5997C61.1189 32.2994 60.7499 33.9627 60.2035 35.591C60.1459 35.7629 60.0839 35.9333 60.0175 36.1023C60.0003 36.1489 59.9628 36.1867 59.9902 36.1445C57.5755 34.1375 55.1608 32.1304 52.6799 30.068C52.912 29.031 52.7375 27.9488 51.9605 26.9832C51.8798 26.8842 51.962 26.5798 52.0542 26.421C52.4146 25.7962 52.762 25.1655 53.0979 24.529C53.3704 24.012 53.6313 23.4891 53.885 22.9647C54.6044 21.4806 55.2545 19.9629 55.824 18.4074C56.1858 17.4199 56.5448 16.428 56.8216 15.4143C57.0046 14.7429 57.564 15.0633 57.9258 14.8827C57.9979 14.8463 58.2689 15.075 58.3554 15.2337C60.6259 19.3658 61.6336 23.7818 61.475 28.4543ZM57.0075 10.0137C57.9114 10.0239 58.625 10.7783 58.612 11.709C58.599 12.6077 57.8826 13.3446 57.009 13.3563C56.0532 13.3694 55.3324 12.6499 55.331 11.6813C55.331 10.7113 56.0431 10.002 57.0075 10.0137ZM50.7208 4.128C51.6261 4.13382 52.3642 4.88974 52.3541 5.8015C52.3425 6.7555 51.652 7.4619 50.7208 7.47063C49.7751 7.47937 49.0543 6.74239 49.0601 5.77383C49.0673 4.86061 49.8111 4.12217 50.7208 4.128ZM25.8577 4.82128C29.688 2.92639 33.7417 2.12678 37.9944 2.34671C41.0448 2.50401 43.9698 3.19876 46.7593 4.46445C47.0188 4.58242 47.2739 4.71205 47.519 4.83148C47.4296 5.78257 47.4296 5.78111 46.5748 6.05784C45.6507 6.35642 45.6219 6.34186 44.7295 6.7118C43.9237 7.30023 44.5854 8.50328 45.3609 8.22364C46.3297 7.8231 46.4392 7.81874 47.4498 7.51287C47.5968 7.46918 47.8578 7.49976 47.9414 7.60172C49.3786 9.31455 50.95 9.584 52.8399 8.36492C53.3271 8.82662 53.7971 9.27085 54.2872 9.73402C53.8029 10.5657 53.5809 11.4192 53.7856 12.3586C53.9672 13.1946 54.3809 13.8821 55.07 14.3715C55.3295 14.555 55.3569 14.7108 55.269 15.0007C54.5222 17.4447 53.5982 19.8071 52.5011 22.0938C52.2488 22.6196 51.9879 23.141 51.7183 23.658C51.368 24.328 51.0033 24.9922 50.6227 25.6476C50.4555 25.9374 50.2695 25.9054 49.987 25.9418C49.0745 26.0598 48.7934 25.4903 48.4546 24.8116C47.6531 23.2051 46.7492 21.6772 45.7458 20.2266C44.9587 19.089 44.1111 18.001 43.2 16.9597C42.2082 15.825 41.1457 14.7458 40.0083 13.7262C39.7171 13.4655 39.6306 13.2616 39.7503 12.8553C39.8901 12.3819 39.9002 11.8576 39.8916 11.3565C39.8872 11.055 39.9002 10.8686 40.1943 10.6982C41.0261 10.219 40.9309 10.1724 41.7916 9.75878C42.9001 9.25774 41.9415 7.8901 41.2121 8.2251C40.1583 8.72758 40.0631 8.87906 39.0482 9.4835C37.7407 8.31831 35.9618 8.05032 34.2881 9.47622C31.9311 8.07653 29.453 6.92882 26.8394 6.0826C26.5309 5.9821 26.2051 5.91948 25.9197 5.77528C25.7481 5.68789 25.5406 5.48399 25.529 5.3194C25.5189 5.15773 25.6963 4.89993 25.8577 4.82128ZM51.1359 29.2247C51.1273 30.17 50.4238 30.8837 49.4954 30.8895C48.5901 30.8953 47.8405 30.1001 47.8607 29.1534C47.8794 28.2591 48.6132 27.5206 49.4839 27.5192C50.4339 27.5177 51.146 28.2518 51.1359 29.2247ZM46.236 29.4417H46.2374C46.2634 29.9384 46.409 30.4176 46.6785 30.8589C46.827 31.1021 46.8054 31.258 46.6295 31.4779C44.2509 34.4608 41.584 37.1349 38.6186 39.4871C36.1434 38.539 33.6279 37.4743 31.1065 36.3033C28.4958 35.0915 25.973 33.8083 23.5757 32.4814C23.6391 32.4144 23.6953 32.3358 23.74 32.2426C24.246 30.4132 24.9034 28.613 25.7121 26.8405C25.7755 26.7239 26.7472 24.9456 27.8168 23.1221C27.9898 23.1352 28.725 21.6714 28.689 21.6685C29.0797 21.0349 29.453 20.4538 29.7716 20.0066C30.886 18.5123 32.1315 17.114 33.4794 15.8017C33.6221 15.6634 33.7792 15.5381 33.9104 15.3881C34.0805 15.1958 34.2477 15.0356 34.4251 14.9206C34.7768 14.6948 35.1732 14.6555 35.7239 14.941C36.4995 15.3429 37.3846 15.1667 38.166 14.7472C38.2236 14.7167 38.2755 14.6948 38.326 14.6788C38.5422 14.7735 38.757 14.8696 38.9733 14.9657C40.19 16.0727 41.3187 17.2466 42.3624 18.4875C44.3143 20.8091 45.965 23.3609 47.3056 26.1472C47.3806 26.303 47.3907 26.6453 47.31 26.6934C47.3056 26.6963 47.3013 26.7021 47.297 26.7094C47.1615 26.8696 46.037 28.2256 46.236 29.4417ZM35.0147 11.8284C35.0031 10.9181 35.7456 10.1447 36.6365 10.136C37.5893 10.1273 38.3202 10.8599 38.3145 11.8168C38.3087 12.7504 37.6009 13.4743 36.6754 13.4932C35.8003 13.5107 35.0262 12.7358 35.0147 11.8284ZM22.2941 4.13528C23.2225 4.14839 23.9072 4.86207 23.9101 5.81752C23.9116 6.72491 23.1576 7.49103 22.2638 7.48957C21.3715 7.48811 20.6204 6.722 20.6219 5.81461C20.6233 4.84022 21.3398 4.12071 22.2941 4.13528ZM8.48371 21.9904C3.70196 17.6005 1.55832 13.8034 2.59338 11.527C3.36896 9.81995 5.95228 8.92712 9.90078 8.92712C11.3712 8.92712 13.0334 9.05092 14.8598 9.3029C15.546 9.39757 16.2495 9.50972 16.966 9.63789C16.9256 9.68304 16.8824 9.72819 16.842 9.7748C16.6777 9.96268 16.5998 10.3792 16.6907 10.6035C16.7844 10.8351 17.126 11.0827 17.374 11.1002C17.6219 11.1177 17.9391 10.9109 18.138 10.7142C18.3744 10.4812 18.6051 10.2423 18.8357 10.0035C19.31 9.51117 19.7742 9.0116 20.2384 8.52222C20.3148 8.5397 20.3898 8.55717 20.4662 8.57465C21.161 8.99266 21.8386 9.14996 22.5392 9.08297C22.7194 9.06549 22.901 9.0349 23.0841 8.98829C24.0442 8.74797 24.7261 8.12897 25.2148 7.29149C28.0403 8.11586 30.6769 9.2592 33.181 10.7186C33.4145 10.8541 33.4678 10.9895 33.4578 11.275C33.4405 11.7454 33.452 12.2377 33.5572 12.6951C33.5716 12.7562 33.5875 12.8189 33.6048 12.8786C33.7201 13.2762 33.625 13.4597 33.3554 13.7C33.1507 13.8821 32.9489 14.0671 32.7485 14.2535C31.2435 15.6546 29.8696 17.1796 28.627 18.8254L28.6241 18.824C28.6241 18.824 28.5174 18.9623 28.3358 19.2099C28.2781 19.2857 28.2219 19.3497 28.1628 19.4007C28.1715 19.4051 28.1787 19.4095 28.1873 19.4138C27.8413 19.8916 27.3224 20.6329 26.7428 21.5432C26.6088 21.5359 26.3118 22.4127 25.8419 23.0216C25.3459 23.8765 24.8457 24.8101 24.4031 25.7743L24.4046 25.7758C23.505 27.6983 22.7727 29.6762 22.2076 31.7095C19.0866 29.9209 16.1976 28.0595 13.6273 26.1763C13.9862 25.735 14.1664 25.1961 14.2587 24.5727C14.3668 23.8372 14.2313 22.8322 13.5826 22.0559C13.4038 21.8418 13.2136 21.5942 12.9742 21.4485C12.66 21.2577 12.6513 21.0495 12.7407 20.7334C13.3736 18.4817 14.2818 16.3538 15.4841 14.3511C15.8214 13.7889 15.7551 13.3519 15.3183 13.0708C14.857 12.7752 14.449 12.9237 14.0886 13.5223C12.8286 15.6153 11.8527 17.8365 11.2256 20.2032C11.1175 20.6111 10.9531 20.7873 10.5221 20.8456C9.63698 20.9679 8.96231 21.3612 8.48371 21.9904ZM9.37893 24.0513C9.38758 23.6944 9.51444 23.3595 9.71915 23.0871C10.0204 22.6836 10.4918 22.4157 11.005 22.4142C11.9478 22.4127 12.6657 23.1555 12.6557 24.1227C12.6513 24.5348 12.5187 24.8975 12.2953 25.1772C11.9911 25.5588 11.5168 25.7874 10.9618 25.7743C10.0695 25.7525 9.35731 24.9776 9.37893 24.0513ZM22.297 50.5608C21.3801 50.5783 20.6175 49.8107 20.619 48.8713C20.6204 47.9595 21.3657 47.1934 22.2537 47.189C23.1317 47.1847 23.8986 47.9581 23.9101 48.8596C23.9231 49.7772 23.1951 50.5448 22.297 50.5608ZM24.7462 46.7346C24.308 46.1549 23.691 45.8243 22.9904 45.6306C22.8333 45.5869 22.6141 45.3859 22.6012 45.2417C22.3705 42.6084 22.4037 40.0231 22.7064 37.4874C22.7828 36.4518 21.4335 36.1299 21.0832 37.3563C20.7833 39.8163 20.73 42.2894 20.9462 44.7742C21.0097 45.5039 20.9592 46.0603 20.0279 46.2948C14.8368 41.1126 12.2059 34.7608 11.7849 27.4041C11.9046 27.343 12.0185 27.2891 12.128 27.2366C17.1822 31.0016 23.4849 34.6895 30.3814 37.8923C32.5928 38.9191 34.8028 39.8658 36.9853 40.7266C36.8815 40.8023 36.7777 40.8795 36.6725 40.9553C33.2055 43.4386 29.4732 45.4165 25.5002 46.94C25.1629 47.0696 24.9783 47.0405 24.7462 46.7346ZM47.9976 49.55C48.0308 49.8632 47.9587 49.9986 47.6877 50.1282C40.3197 53.6369 32.9604 53.6296 25.604 50.0962C25.5406 50.0656 25.4829 50.0219 25.4151 49.9811C25.4555 49.6199 25.4497 49.2485 25.5521 48.9121C25.6054 48.7387 25.8289 48.564 26.0148 48.4926C28.849 47.4119 31.575 46.104 34.1814 44.5426C35.7859 43.5799 37.3241 42.5385 38.796 41.4214C42.9578 42.9798 46.9971 44.2091 50.7438 45.0538C50.7381 45.1441 50.7337 45.2359 50.7294 45.3262C50.7193 45.4966 50.529 45.7442 50.369 45.801C48.6852 46.3967 47.8059 47.744 47.9976 49.55ZM51.2383 50.6919C50.3229 50.7006 49.5862 49.9753 49.5776 49.0548C49.5689 48.0746 50.2681 47.3551 51.2253 47.358C52.1609 47.3609 52.85 48.06 52.8601 49.014C52.8702 49.9374 52.1494 50.6832 51.2383 50.6919ZM53.5117 46.0457C53.3444 46.2015 53.2003 46.42 52.9278 46.1943C52.6784 45.9874 52.2863 45.9976 52.3368 45.4427C52.3382 45.4267 52.3397 45.4092 52.3411 45.3932L52.5011 45.4252V45.4238C52.9696 45.517 53.4324 45.6029 53.8894 45.683C53.7654 45.8054 53.64 45.9263 53.5117 46.0457ZM55.3324 44.1494C54.4343 44.0124 53.5117 43.8479 52.5674 43.6571L52.3988 43.6207L52.4507 42.0069C52.331 40.1513 50.7957 40.3785 50.7424 42.0069C50.728 42.4453 50.7208 42.8691 50.7193 43.2536L50.6573 43.2405C47.4195 42.4875 43.9612 41.4476 40.3947 40.1513C43.0803 37.9316 45.531 35.4367 47.7468 32.6693C48.0048 32.3474 48.2066 32.1931 48.6305 32.3882C48.9289 32.5266 49.295 32.5149 49.7448 32.5907C49.9884 33.8476 50.2378 35.1119 50.4771 36.3761C50.5535 36.7839 50.64 37.167 51.1158 37.2849C51.7025 37.4306 52.2099 37.0053 52.1018 36.363C51.8884 35.0915 51.6117 33.8316 51.3551 32.5688C51.2945 32.2717 51.1878 32.0168 51.5439 31.7765C51.8957 31.5391 52.0456 31.8115 52.2402 31.9469C54.6476 33.6277 56.872 35.5284 58.9522 37.6054C59.2175 37.8704 59.2449 38.0685 59.0863 38.4006C58.0801 40.5009 56.8316 42.419 55.3324 44.1494ZM68.2851 42.0243C67.2846 44.2236 63.2842 45.0728 57.2324 44.3999C60.1473 40.7863 62.0142 36.6281 62.7595 31.9003C67.2846 36.146 69.2942 39.8076 68.2851 42.0243Z" fill="black"/>
</svg>
