<svg width="57" height="56" viewBox="0 0 57 56" fill="none" xmlns="http://www.w3.org/2000/svg">
<path d="M50.6253 18.4337C52.0413 19.2996 53.7462 19.1697 55.0033 18.1163C55.6968 17.539 56.0147 16.7453 56.2892 15.9227V14.725C56.0292 13.9601 55.7402 13.2097 55.1189 12.6469C53.8185 11.478 52.0268 11.3048 50.5386 12.2861C50.2641 12.4593 50.0762 12.4737 49.8017 12.3294C47.7355 11.3192 45.6549 10.3235 43.5887 9.31332C43.4153 9.22674 43.213 9.01027 43.1841 8.82267C42.3317 4.49336 38.8206 1.27524 34.7171 0.683563C33.4023 0.77015 33.3011 2.42972 34.8616 2.57403C37.6791 3.15127 40.0487 5.17162 41.0457 8.02896C42.1727 11.2471 41.0746 14.826 38.9073 16.6732C38.3582 17.3803 37.578 17.9287 36.7111 18.174C36.581 18.3039 36.3354 18.3904 35.9019 18.5348C33.8791 19.213 31.8851 19.1409 29.9057 18.3327C29.8623 18.3183 29.819 18.2894 29.7756 18.275C28.8653 18.0008 27.5938 16.7164 27.5938 16.7597C25.7444 15.4177 24.3284 12.1129 25.0364 9.01027C25.7588 5.80658 28.6342 3.02139 31.1771 2.66062C32.6076 2.45858 32.3764 0.64027 30.5992 0.91446C26.3946 2.02565 23.3892 5.61898 23.028 9.96272C23.0136 10.1359 22.9269 10.3524 22.7968 10.4678C21.063 11.9686 19.3146 13.455 17.5952 14.927C16.8728 14.4941 16.2081 13.9746 15.4568 13.6571C14.4598 13.253 13.4195 12.9788 12.3792 12.7046C12.0469 12.618 11.8879 12.5314 11.9024 12.1562C11.9313 10.8574 11.9168 9.55865 11.9024 8.25986C11.9024 8.01453 11.9168 7.84136 12.2058 7.72591C13.8241 7.09094 14.7633 5.6767 14.6766 4.10372C14.5754 2.42972 13.5062 1.14536 11.7868 0.669132C11.7001 0.64027 11.6279 0.611408 11.5412 0.568115H10.4575C10.4142 0.596977 10.3708 0.625839 10.313 0.64027C8.55026 0.972184 7.45214 2.47301 7.30766 3.91612C7.14872 5.61898 8.21793 7.26412 9.77841 7.75477C9.894 7.79807 10.0385 7.97124 10.0385 8.08669C10.0529 9.58751 10.0529 11.0739 10.0529 12.618C7.27876 12.9355 4.98139 14.1189 3.20418 16.2258C1.42697 18.3183 0.617839 20.8004 0.86347 23.5712C1.0802 25.9812 2.13497 28.1603 3.72434 29.8054C3.72434 29.8054 3.94107 29.9641 3.95552 29.9641C5.41486 30.4259 5.73273 28.9251 4.85135 28.2757C3.29088 26.7027 2.14942 23.7011 2.91521 20.7283C3.83993 17.1494 6.94643 14.5807 10.5442 14.4219C14.2864 14.2487 17.6097 16.4711 18.8523 20.0356C19.9937 23.2681 18.8956 26.847 16.5694 28.8241C16.5694 28.7664 16.3093 29.0406 16.1648 29.1993C15.7747 29.6322 14.2864 30.3538 13.8385 30.5125C12.0758 31.1186 10.313 31.1619 8.57915 30.6424C7.351 30.195 6.55632 31.566 7.61108 32.3308C8.23238 32.5473 8.89703 32.706 9.56168 32.8071C11.8735 33.1101 14.0553 32.7205 16.0637 31.5227C18.7367 29.9497 20.3694 27.5974 21.0196 24.5092C22.2911 25.5049 23.5048 26.4574 24.7474 27.3954C25.0797 27.6407 25.1231 27.8428 25.0219 28.2468C24.6463 29.6322 25.0075 30.8733 26.0478 31.869C26.9147 32.706 28.1718 33.0524 29.3421 32.7926C30.9315 32.4318 31.914 31.4072 32.1886 29.8343C32.4631 28.3334 31.9285 27.0779 30.6859 26.1976C29.4144 25.3173 28.0562 25.2741 26.7125 26.0389C26.3946 26.2265 26.1923 26.2121 25.9178 25.9812C24.4584 24.8267 22.9847 23.7011 21.5253 22.5322C21.323 22.3734 21.193 22.0848 21.1208 21.825C20.904 20.9736 20.8318 20.0644 20.5139 19.2563C20.1093 18.2173 19.5025 17.236 18.9534 16.1681C20.2827 15.028 21.6987 13.8302 23.158 12.5892C24.6029 19.4006 32.0874 23.1238 38.5316 19.3862C39.8898 21.2045 41.2624 23.0228 42.6495 24.87C42.4617 24.9277 42.3461 24.971 42.2161 25.0143C39.8465 25.7791 37.9537 27.179 36.6099 29.2859C34.9916 31.8546 34.6304 34.6109 35.4107 37.5404C35.454 37.728 35.4685 38.06 35.3529 38.1465C34.2114 39.0413 33.0266 39.9071 31.8418 40.7874C31.7262 40.6142 31.6395 40.4844 31.5528 40.3401C28.7208 35.7943 22.4789 34.2646 17.8842 37.0209C15.0667 38.7094 13.3906 41.1771 12.9138 44.4385C12.8705 44.7704 12.7404 44.8858 12.3936 44.8858C11.0933 44.8714 9.79286 44.8714 8.49246 44.8858C8.17459 44.8858 8.0301 44.7992 7.91451 44.4818C7.63998 43.6881 7.10537 43.082 6.38293 42.649C4.47568 41.5234 2.17831 42.2017 1.1669 44.1643C0.22772 45.997 1.06575 48.306 2.98745 49.1574C4.90915 50.0089 7.14872 49.0708 7.91451 47.0649C8.01565 46.7907 8.14569 46.7186 8.42022 46.7186C9.74951 46.733 11.0933 46.733 12.4225 46.7186C12.7549 46.7186 12.856 46.8485 12.8994 47.1515C12.9572 47.5556 13.0294 47.9741 13.1305 48.3637C14.0842 52.0436 17.3063 55.3916 21.8721 55.8967C25.6721 56.3152 29.4577 54.5835 31.5673 51.12C32.1452 50.182 32.5209 49.1286 32.9977 48.104C33.9224 48.5513 34.9194 49.0275 35.9019 49.5038C36.8989 49.98 37.9103 50.4706 38.9073 50.9469C38.8495 51.1633 38.8061 51.3221 38.7772 51.4664C38.2426 53.8764 40.3233 56.1709 42.7507 55.8823C44.34 55.6947 45.5682 54.6268 45.9583 53.0827C46.3195 51.6396 45.7271 50.0666 44.4701 49.1863C43.2564 48.3349 41.5948 48.3349 40.2944 49.1719C40.1354 49.2729 39.8465 49.3162 39.6875 49.244C37.5924 48.2627 35.5263 47.267 33.4456 46.2424C33.3011 46.1702 33.1711 45.9393 33.1422 45.7661C33.0555 45.1456 33.1566 44.4529 32.911 43.9045C32.362 42.6346 32.9977 42.0429 33.9513 41.4368C34.7605 40.9317 35.5118 40.2968 36.292 39.7051C36.3787 39.835 36.4365 39.9071 36.4799 39.9793C38.5461 43.385 42.664 45.4486 46.9553 44.6838C52.5325 43.7025 56.3615 38.0022 55.0611 32.5184C53.9341 27.7418 50.004 24.6102 45.048 24.5236C44.8458 24.5236 44.5712 24.3793 44.4412 24.2062C42.9963 22.3157 41.5659 20.4108 40.1354 18.5059C40.0632 18.4049 40.0054 18.3039 39.9476 18.2028C42.1872 15.7784 42.5773 14.9703 43.2853 11.2327C45.207 12.1562 47.1142 13.0798 49.0215 14.0034C48.9926 14.1477 48.9637 14.2487 48.9348 14.3642C48.6314 15.966 49.2816 17.6256 50.6253 18.4337ZM52.6048 13.4983C53.7174 13.4983 54.5987 14.4796 54.4253 15.6053C54.2953 16.4423 53.5873 17.1061 52.7493 17.1638C51.6512 17.2504 50.7553 16.3845 50.7698 15.3022C50.7698 14.292 51.5934 13.4983 52.6048 13.4983ZM9.15711 4.24803C9.15711 3.22343 9.99514 2.38643 11.021 2.40086C12.018 2.41529 12.8416 3.25229 12.8416 4.24803C12.8416 5.27263 12.0035 6.08077 10.9632 6.08077C9.95179 6.06634 9.15711 5.2582 9.15711 4.24803ZM28.533 27.3521C29.5589 27.3377 30.3969 28.1747 30.3969 29.1993C30.3969 30.195 29.5733 31.0176 28.5764 31.032C27.5505 31.0465 26.7125 30.2095 26.7125 29.1849C26.7125 28.1747 27.536 27.3521 28.533 27.3521ZM4.51903 47.6422C3.49316 47.6422 2.65513 46.8052 2.66958 45.7806C2.68402 44.7848 3.52206 43.9622 4.51903 43.9622C5.5449 43.9622 6.35403 44.7992 6.35403 45.8383C6.33958 46.8485 5.53045 47.6422 4.51903 47.6422ZM28.7208 51.7839C28.1573 52.5343 27.3338 53.0971 26.4379 53.328C26.3223 53.4146 26.1634 53.4867 25.99 53.5445C23.8805 54.2804 21.7998 54.266 19.7337 53.4001C19.5747 53.3424 19.4736 53.2703 19.4013 53.1548C18.6211 52.8806 17.9565 52.3611 17.4796 51.6973C17.4796 51.7406 17.4796 51.7839 17.4796 51.8272C15.8903 51.1633 14.402 47.3824 14.7488 44.9147C15.2979 40.9606 18.2021 38.0022 21.9443 37.5549C25.8311 37.0931 29.3566 39.2 30.787 42.8222C32.0296 46.0403 31.0471 49.7202 28.7208 51.7839ZM42.4328 50.4418C43.3286 50.4418 44.1089 51.1056 44.2534 51.9859C44.4412 53.1115 43.5309 54.1217 42.4328 54.1217C41.4214 54.1217 40.5833 53.2558 40.5978 52.2457C40.5978 51.2355 41.4214 50.4418 42.4328 50.4418ZM44.5857 26.4285C48.2412 26.1976 51.6078 28.2901 52.9227 31.6093C54.1797 34.7841 53.3561 38.5795 50.9721 40.6575C50.3363 41.61 49.2671 42.3027 48.1256 42.4759C48.0823 42.4903 48.039 42.5047 47.9812 42.5191C45.9439 43.1974 43.921 43.1541 41.9271 42.3315C41.7826 42.2738 41.6815 42.2017 41.6092 42.1295C40.8001 41.8842 40.1065 41.3935 39.6008 40.7297C39.6008 40.7441 39.6008 40.7441 39.6008 40.7586C37.7369 39.3587 36.2487 35.9675 37.1301 32.6195C38.0548 29.2137 41.1035 26.6594 44.5857 26.4285Z" fill="black"/>
</svg>
