<svg width="53" height="52" viewBox="0 0 53 52" fill="none" xmlns="http://www.w3.org/2000/svg">
<path d="M18.0482 8.69431C18.0474 7.08495 17.5953 5.50807 16.7433 4.14275C15.8913 2.77742 14.6735 1.67837 13.2282 0.970408C11.7829 0.262446 10.1681 -0.0260546 8.56709 0.137671C6.96608 0.301396 5.44306 0.910784 4.171 1.89663C2.89894 2.88248 1.92881 4.20528 1.3708 5.71479C0.812779 7.22431 0.689232 8.86006 1.01419 10.4363C1.33915 12.0125 2.09958 13.466 3.20914 14.6317C4.31869 15.7974 5.7329 16.6287 7.29115 17.031V34.7801C5.26311 35.3038 3.49567 36.5491 2.32011 38.2826C1.14456 40.0162 0.641602 42.119 0.905524 44.1968C1.16945 46.2747 2.18213 48.185 3.75374 49.5696C5.32536 50.9542 7.34801 51.7181 9.44256 51.7181C11.5371 51.7181 13.5598 50.9542 15.1314 49.5696C16.703 48.185 17.7157 46.2747 17.9796 44.1968C18.2435 42.119 17.7406 40.0162 16.565 38.2826C15.3895 36.5491 13.622 35.3038 11.594 34.7801V17.031C13.4406 16.5514 15.0759 15.4728 16.2439 13.9642C17.4118 12.4556 18.0464 10.6022 18.0482 8.69431ZM13.7454 43.1168C13.7454 43.9678 13.493 44.7997 13.0202 45.5073C12.5474 46.2149 11.8754 46.7664 11.0892 47.0921C10.3029 47.4178 9.43779 47.503 8.60312 47.337C7.76846 47.1709 7.00177 46.7611 6.40001 46.1594C5.79825 45.5576 5.38845 44.7909 5.22243 43.9563C5.0564 43.1216 5.14161 42.2564 5.46728 41.4702C5.79295 40.684 6.34445 40.012 7.05205 39.5392C7.75964 39.0664 8.59155 38.814 9.44256 38.814C10.5837 38.814 11.6782 39.2673 12.4851 40.0743C13.292 40.8812 13.7454 41.9756 13.7454 43.1168ZM9.44256 12.9971C8.59155 12.9971 7.75964 12.7448 7.05205 12.272C6.34445 11.7992 5.79295 11.1272 5.46728 10.3409C5.14161 9.55469 5.0564 8.68954 5.22243 7.85487C5.38845 7.02021 5.79825 6.25352 6.40001 5.65176C7.00177 5.05 7.76846 4.6402 8.60312 4.47417C9.43779 4.30815 10.3029 4.39336 11.0892 4.71903C11.8754 5.0447 12.5474 5.5962 13.0202 6.30379C13.493 7.01139 13.7454 7.84329 13.7454 8.69431C13.7454 9.83549 13.292 10.9299 12.4851 11.7369C11.6782 12.5438 10.5837 12.9971 9.44256 12.9971ZM46.0165 34.7801V24.7976C46.0215 22.8191 45.6343 20.8593 44.8773 19.0314C44.1203 17.2035 43.0084 15.5437 41.6061 14.1481L33.9982 6.5429H41.7137C42.2843 6.5429 42.8315 6.31624 43.2349 5.91277C43.6384 5.5093 43.8651 4.96208 43.8651 4.3915C43.8651 3.82091 43.6384 3.27369 43.2349 2.87022C42.8315 2.46676 42.2843 2.24009 41.7137 2.24009H28.8052C28.2346 2.24009 27.6874 2.46676 27.2839 2.87022C26.8805 3.27369 26.6538 3.82091 26.6538 4.3915V17.2999C26.6538 17.8705 26.8805 18.4177 27.2839 18.8212C27.6874 19.2247 28.2346 19.4513 28.8052 19.4513C29.3758 19.4513 29.923 19.2247 30.3265 18.8212C30.73 18.4177 30.9566 17.8705 30.9566 17.2999V9.58445L38.5619 17.1924C39.5643 18.1884 40.359 19.3736 40.9001 20.6791C41.4411 21.9845 41.7176 23.3844 41.7137 24.7976V34.7801C39.6856 35.3038 37.9182 36.5491 36.7426 38.2826C35.5671 40.0162 35.0641 42.119 35.328 44.1968C35.592 46.2747 36.6046 48.185 38.1763 49.5696C39.7479 50.9542 41.7705 51.7181 43.8651 51.7181C45.9596 51.7181 47.9823 50.9542 49.5539 49.5696C51.1255 48.185 52.1382 46.2747 52.4021 44.1968C52.666 42.119 52.1631 40.0162 50.9875 38.2826C49.812 36.5491 48.0445 35.3038 46.0165 34.7801ZM43.8651 47.4196C43.0141 47.4196 42.1821 47.1673 41.4746 46.6945C40.767 46.2217 40.2155 45.5497 39.8898 44.7634C39.5641 43.9772 39.4789 43.112 39.6449 42.2774C39.811 41.4427 40.2208 40.676 40.8225 40.0743C41.4243 39.4725 42.191 39.0627 43.0256 38.8967C43.8603 38.7307 44.7255 38.8159 45.5117 39.1415C46.2979 39.4672 46.9699 40.0187 47.4427 40.7263C47.9155 41.4339 48.1679 42.2658 48.1679 43.1168C48.1679 44.258 47.7146 45.3524 46.9076 46.1594C46.1007 46.9663 45.0062 47.4196 43.8651 47.4196Z" fill="black"/>
</svg>
