<svg width="62" height="53" viewBox="0 0 62 53" fill="none" xmlns="http://www.w3.org/2000/svg">
<path d="M61.7349 49.8085C61.7349 50.4309 61.4876 51.0277 61.0476 51.4678C60.6075 51.9079 60.0106 52.1551 59.3883 52.1551H3.06998C2.44763 52.1551 1.85076 51.9079 1.41069 51.4678C0.970618 51.0277 0.723389 50.4309 0.723389 49.8085V2.87662C0.723389 2.25427 0.970618 1.6574 1.41069 1.21733C1.85076 0.77726 2.44763 0.530029 3.06998 0.530029C3.69234 0.530029 4.2892 0.77726 4.72928 1.21733C5.16935 1.6574 5.41658 2.25427 5.41658 2.87662V34.758L20.1825 19.9892C20.4005 19.771 20.6593 19.5979 20.9441 19.4798C21.229 19.3617 21.5344 19.3009 21.8427 19.3009C22.1511 19.3009 22.4565 19.3617 22.7413 19.4798C23.0262 19.5979 23.285 19.771 23.503 19.9892L31.2291 27.7183L46.6844 12.263H40.6155C39.9931 12.263 39.3963 12.0158 38.9562 11.5757C38.5161 11.1356 38.2689 10.5388 38.2689 9.91641C38.2689 9.29405 38.5161 8.69719 38.9562 8.25712C39.3963 7.81704 39.9931 7.56981 40.6155 7.56981H52.3485C52.9708 7.56981 53.5677 7.81704 54.0078 8.25712C54.4478 8.69719 54.6951 9.29405 54.6951 9.91641V21.6494C54.6951 22.2717 54.4478 22.8686 54.0078 23.3087C53.5677 23.7487 52.9708 23.996 52.3485 23.996C51.7261 23.996 51.1293 23.7487 50.6892 23.3087C50.2491 22.8686 50.0019 22.2717 50.0019 21.6494V15.5805L32.8893 32.696C32.6714 32.9142 32.4126 33.0872 32.1277 33.2053C31.8429 33.3234 31.5375 33.3842 31.2291 33.3842C30.9207 33.3842 30.6154 33.3234 30.3305 33.2053C30.0456 33.0872 29.7868 32.9142 29.5689 32.696L21.8427 24.9669L5.41658 41.393V47.4619H59.3883C60.0106 47.4619 60.6075 47.7092 61.0476 48.1492C61.4876 48.5893 61.7349 49.1862 61.7349 49.8085Z" fill="black"/>
</svg>
