<svg width="62" height="62" viewBox="0 0 62 62" fill="none" xmlns="http://www.w3.org/2000/svg">
<path d="M45.5792 27.5385C52.156 29.9447 56.0059 34.7571 56.0059 41.4142C56.0059 51.1993 47.7447 56.8939 32.265 56.8939H0.663818V0.749756H30.6608C46.1406 0.749756 53.3591 6.92562 53.3591 15.4274C53.3591 20.6408 50.7123 24.972 45.5792 27.5385ZM28.0943 13.9837H19.2716V22.3252H28.0943C32.3452 22.3252 34.2701 20.8815 34.2701 18.1545C34.2701 15.4274 32.3452 13.9837 28.0943 13.9837ZM30.6608 43.6599C34.8316 43.6599 36.9169 42.136 36.9169 39.2486C36.9169 36.3612 34.8316 34.8373 30.6608 34.8373H19.2716V43.6599H30.6608Z" fill="#263651"/>
<path d="M51.2277 31.895C57.8046 34.3011 61.6545 39.1135 61.6545 45.7706C61.6545 55.5557 53.3933 61.2503 37.9135 61.2503H6.31238V5.10617H36.3094C51.7892 5.10617 59.0077 11.282 59.0077 19.7839C59.0077 24.9972 56.3609 29.3284 51.2277 31.895ZM33.7428 18.3402H24.9202V26.6816H33.7428C37.9937 26.6816 39.9187 25.2379 39.9187 22.5109C39.9187 19.7839 37.9937 18.3402 33.7428 18.3402ZM36.3094 48.0164C40.4801 48.0164 42.5655 46.4924 42.5655 43.605C42.5655 40.7176 40.4801 39.1937 36.3094 39.1937H24.9202V48.0164H36.3094Z" fill="#00D2AC"/>
</svg>
