<svg width="63" height="63" viewBox="0 0 63 63" fill="none" xmlns="http://www.w3.org/2000/svg">
<path d="M41.7117 20.3598C36.4104 15.1044 30.5558 10.6601 23.4195 7.94956C23.5206 8.47613 23.603 8.91323 23.6897 9.34885C23.7749 9.77421 23.863 10.1966 23.9584 10.6543C23.3631 10.7833 22.8242 10.9007 22.2318 11.0283C21.9269 9.5586 21.6134 8.13291 21.3475 6.69988C21.2608 6.23492 21.5021 5.85063 21.9703 5.74062C23.4946 5.38126 25.0262 5.05418 26.6286 4.69775C26.7528 5.30793 26.867 5.8653 26.9883 6.45347C26.4913 6.56934 26.0593 6.67055 25.6576 6.76442C27.9607 7.99797 30.2754 9.23738 32.5873 10.4753C32.4803 10.2641 32.3546 10.0133 32.1885 9.68767C32.973 9.25791 33.7562 8.82815 34.5754 8.37932C34.8427 8.92349 35.0985 9.44126 35.3658 9.98543C34.6997 10.3492 34.0668 10.6939 33.3473 11.087C36.8511 13.4617 40.0299 16.1385 42.963 19.1072C42.5454 19.5267 42.151 19.9213 41.7117 20.3598Z" fill="black"/>
<path d="M51.0268 20.6677C52.4255 20.2614 53.736 19.8639 55.0566 19.5045C55.6519 19.3417 56.0637 19.5412 56.2284 20.0868C56.6807 21.5873 57.0925 23.101 57.5418 24.6851C56.9581 24.8523 56.4162 25.0078 55.8441 25.1721C55.688 24.6441 55.5479 24.1747 55.3658 23.5572C52.6957 30.7238 48.4405 36.6818 43.327 42.0838C42.9384 41.6379 42.5627 41.2067 42.1523 40.7374C47.2817 35.2707 51.6712 29.1485 54.1391 21.6431C53.2072 21.9056 52.385 22.1388 51.5109 22.3852C51.3476 21.8073 51.1959 21.2705 51.0268 20.6677Z" fill="black"/>
<path d="M37.8036 57.1193C37.6331 56.5224 37.4857 56.0002 37.3181 55.4149C37.8253 55.2507 38.3079 55.0937 38.8974 54.903C31.8463 52.2027 25.9787 47.8729 20.6167 42.6468C21.0574 42.264 21.4793 41.8987 21.9648 41.4778C24.593 44.0182 27.4626 46.4853 30.6225 48.5784C33.7724 50.6656 37.0638 52.4653 40.7858 53.6328C40.5388 52.7352 40.3119 51.905 40.062 50.9956C40.611 50.8357 41.1528 50.6788 41.7655 50.5013C42.1671 51.9666 42.5775 53.3805 42.9358 54.8092C43.0529 55.2771 42.7798 55.6467 42.3348 55.7831C40.8538 56.2393 39.3641 56.6632 37.8036 57.1193Z" fill="black"/>
<path d="M8.73794 39.3646C9.67133 39.1681 10.4964 38.9935 11.3777 38.8087C11.5063 39.3881 11.6263 39.9322 11.7621 40.5424C11.1827 40.6744 10.6307 40.805 10.0759 40.9267C9.26532 41.1056 8.45474 41.2831 7.64271 41.4503C7.124 41.5574 6.74111 41.3491 6.55472 40.8739C6.50848 40.7551 6.47814 40.6289 6.45213 40.5043C6.1487 39.058 5.84672 37.6118 5.53174 36.104C6.11547 35.9764 6.65297 35.8576 7.24682 35.7285C7.35952 36.2199 7.46066 36.6687 7.59648 37.2627C10.4776 30.4144 14.6923 24.6706 19.7292 19.4944C20.1511 19.93 20.5412 20.3304 20.9674 20.7705C18.397 23.4429 15.9826 26.2767 13.8947 29.3848C11.8127 32.4796 10.0195 35.7256 8.73794 39.3646Z" fill="black"/>
<path d="M43.9541 56.5682C44.0422 56.0211 44.1304 55.4696 44.1968 55.0486C45.2906 55.0486 46.315 55.0633 47.3366 55.0457C49.2178 55.0119 50.9878 54.569 52.5136 53.4029C54.1767 52.1312 55.006 50.3579 55.3051 48.3103C55.7212 45.4707 55.2126 42.7307 54.3645 40.0407C54.0148 38.9304 53.5871 37.845 53.1811 36.7097C53.6868 36.4838 54.194 36.2565 54.8009 35.9836C55.2661 37.2876 55.7675 38.5563 56.1706 39.8574C56.8107 41.9255 57.2153 44.0479 57.2225 46.2246C57.2326 49.029 56.6373 51.6413 54.7127 53.7872C53.5395 55.0955 52.0816 55.9199 50.4098 56.3966C48.5936 56.9158 45.4972 57.0243 43.9541 56.5682Z" fill="black"/>
<path d="M37.0592 9.14917C36.8338 8.6314 36.6098 8.11804 36.3584 7.54453C36.8843 7.32452 37.3886 7.10157 37.9015 6.90209C40.6815 5.82402 43.5265 5.05251 46.5289 5.04811C49.2814 5.04517 51.8244 5.67881 53.9166 7.62227C55.2026 8.81768 56.0045 10.3094 56.464 12.0064C57.0448 14.1479 56.9971 16.3026 56.6619 18.5159C56.0883 18.425 55.558 18.3428 54.9526 18.2475C54.9844 17.9057 55.0191 17.5698 55.048 17.2325C55.2228 15.2054 55.1737 13.2062 54.3429 11.3024C53.2924 8.88955 51.4054 7.5636 48.9188 7.0693C45.9235 6.47233 43.0338 7.07077 40.1888 7.99043C39.147 8.32632 38.1298 8.74874 37.0592 9.14917Z" fill="black"/>
<path d="M5.81776 43.4802C6.41594 43.5873 6.94622 43.6826 7.53862 43.7897C7.47938 44.3148 7.41291 44.8164 7.36957 45.3195C7.21641 47.1442 7.29154 48.9527 7.97931 50.6718C9.06731 53.3882 11.1638 54.8007 13.9423 55.2275C14.9509 55.3815 15.9825 55.3713 17.0517 55.4387C17.098 55.9594 17.1457 56.5153 17.1991 57.1108C15.6618 57.3015 14.1952 57.1739 12.7561 56.8248C7.98798 55.669 5.6516 51.8613 5.56057 47.2469C5.54612 46.5516 5.56057 45.8534 5.60536 45.1597C5.6386 44.614 5.73974 44.0743 5.81776 43.4802Z" fill="black"/>
<path d="M19.3516 5.00856C19.252 5.58793 19.1566 6.13796 19.0526 6.7452C18.5237 6.68653 18.0296 6.61906 17.5325 6.57799C15.4172 6.40345 13.3424 6.53399 11.4351 7.60032C9.15944 8.87054 8.08011 10.9475 7.75356 13.4732C7.63075 14.4281 7.63797 15.3991 7.58307 16.4068C7.05279 16.4537 6.50518 16.5021 5.96046 16.549C5.34349 10.9871 7.94429 5.71554 14.1428 4.85895C15.8695 4.61986 17.5889 4.70787 19.3516 5.00856Z" fill="black"/>
<path d="M28.6395 51.4199C28.9256 51.9524 29.1886 52.4452 29.4848 52.9967C28.4748 53.513 27.5039 54.0088 26.4708 54.5353C26.215 53.9721 25.9809 53.4529 25.7324 52.9043C26.7005 52.4085 27.6426 51.9274 28.6395 51.4199Z" fill="black"/>
<path d="M12.7661 33.5753C13.2747 33.2203 13.7313 32.9021 14.224 32.5588C14.8626 33.4492 15.4868 34.3175 16.1486 35.2386C15.6819 35.6068 15.234 35.9603 14.7485 36.3445C14.0853 35.4161 13.4495 34.5287 12.7661 33.5753Z" fill="black"/>
<path d="M22.1912 19.5648C21.7866 19.1335 21.4037 18.7258 20.9746 18.2681C21.804 17.5025 22.6102 16.7603 23.4641 15.9727C23.8572 16.4362 24.227 16.8718 24.6215 17.3367C23.8022 18.0877 23.0148 18.8094 22.1912 19.5648Z" fill="black"/>
<path d="M9.98637 29.0296C9.47343 27.9941 8.98506 27.007 8.46924 25.9626C9.02407 25.7045 9.53845 25.464 10.0759 25.2131C10.5614 26.1959 11.0368 27.1551 11.5367 28.1643C11.0397 28.4415 10.5441 28.7187 9.98637 29.0296Z" fill="black"/>
<path d="M47.1719 26.6755C47.6371 26.3132 48.0764 25.9715 48.5749 25.5828C49.2352 26.5112 49.8825 27.4177 50.5486 28.3535C50.0602 28.6908 49.6022 29.0062 49.0863 29.3611C48.4448 28.462 47.8192 27.5849 47.1719 26.6755Z" fill="black"/>
<path d="M35.6056 46.7395C35.974 47.2177 36.3222 47.6709 36.6936 48.1549C35.7848 48.8282 34.9149 49.4721 33.9743 50.1688C33.6405 49.6818 33.3183 49.2139 32.9629 48.6947C33.8428 48.0435 34.7054 47.4054 35.6056 46.7395Z" fill="black"/>
<path d="M39.297 45.9812C38.8867 45.5016 38.5355 45.0894 38.1396 44.6274C38.9401 43.8808 39.7276 43.1474 40.5078 42.4199C40.9283 42.8247 41.3415 43.2208 41.7967 43.6579C40.9543 44.4397 40.1495 45.1877 39.297 45.9812Z" fill="black"/>
<path d="M27.1687 15.2467C26.7989 14.7553 26.4622 14.3079 26.0938 13.818C27.0127 13.1433 27.8984 12.4921 28.8202 11.8159C29.1569 12.3176 29.4704 12.7825 29.8172 13.3003C28.9416 13.9442 28.0834 14.5749 27.1687 15.2467Z" fill="black"/>
<path d="M45.1127 24.0839C44.37 23.2523 43.6606 22.4602 42.9136 21.6256C43.3441 21.2091 43.7559 20.8101 44.1981 20.3833C44.9523 21.2311 45.682 22.0525 46.455 22.9193C46.0027 23.3124 45.5736 23.6835 45.1127 24.0839Z" fill="black"/>
<path d="M18.2292 37.8054C18.9806 38.6385 19.6944 39.4321 20.4052 40.2212C20.005 40.648 19.6105 41.069 19.1829 41.5251C18.4127 40.6685 17.6758 39.8486 16.9028 38.992C17.345 38.5945 17.7596 38.2249 18.2292 37.8054Z" fill="black"/>
<path d="M8.87645 22.1536C8.31584 22.3487 7.79568 22.5306 7.20906 22.7345C6.93453 21.7708 6.67301 20.8512 6.40137 19.8904C7.00822 19.7452 7.54572 19.6176 8.12222 19.4797C8.37363 20.3745 8.61927 21.2413 8.87645 22.1536Z" fill="black"/>
<path d="M22.7127 54.1172C22.9035 54.676 23.0783 55.1894 23.2892 55.8069C22.3544 56.0826 21.4412 56.3525 20.4876 56.6342C20.3431 56.0049 20.2174 55.4607 20.0859 54.8872C20.963 54.6306 21.801 54.3841 22.7127 54.1172Z" fill="black"/>
<path d="M53.9309 34.1942C53.4541 34.4392 53.0394 34.6533 52.6218 34.8631C52.5438 34.9027 52.4571 34.9276 52.3415 34.9702C52.2332 34.7707 52.1306 34.5815 52.0309 34.3923C51.7448 33.8496 51.4601 33.3069 51.1553 32.726C51.6711 32.4268 52.1494 32.1496 52.6883 31.8372C53.103 32.6233 53.5047 33.3875 53.9309 34.1942Z" fill="black"/>
<path d="M41.3272 37.8009C41.0613 38.2922 40.6567 38.4521 40.1033 38.4507C35.0058 38.4345 29.9068 38.4419 24.8092 38.4404C23.8889 38.4404 23.5941 38.147 23.6013 37.2112C23.6143 35.8428 23.5377 34.4625 23.6808 33.1072C23.9322 30.7502 25.2225 29.0751 27.3031 28.019C27.3696 27.9853 27.4346 27.9486 27.5386 27.8929C26.5865 26.3029 26.3148 24.6118 26.8581 22.8282C27.2525 21.5345 28.0212 20.5019 29.1107 19.7274C31.2722 18.1917 34.2284 18.3384 36.2152 20.0296C38.1585 21.6841 39.2104 24.8215 37.3985 27.9032C38.3377 28.3359 39.1598 28.9299 39.823 29.7366C40.57 30.6445 41.0425 31.6801 41.239 32.8447C41.2564 32.9459 41.2954 33.0427 41.3257 33.1424C41.3272 34.6943 41.3272 36.2476 41.3272 37.8009ZM39.5153 36.5981C39.5153 35.5333 39.5673 34.5139 39.5037 33.5003C39.3867 31.6595 38.1007 30.0388 36.377 29.4902C36.1964 29.433 35.9276 29.4609 35.7673 29.5606C33.5609 30.9423 31.369 30.9423 29.1627 29.5606C29.0023 29.4609 28.7321 29.4286 28.5529 29.4902C27.0604 30.0021 26.0591 31.0391 25.6025 32.5631C25.2066 33.8802 25.4609 35.2414 25.3973 36.5996C30.1293 36.5981 34.7992 36.5981 39.5153 36.5981ZM32.5148 20.4858C30.3013 20.4388 28.4417 22.2679 28.3868 24.5458C28.3319 26.787 30.1568 28.7158 32.3703 28.7539C34.633 28.7935 36.4955 26.9806 36.5446 24.6924C36.5937 22.4234 34.7833 20.5327 32.5148 20.4858Z" fill="black"/>
</svg>
