<svg width="63" height="63" viewBox="0 0 63 63" fill="none" xmlns="http://www.w3.org/2000/svg">
<path d="M41.7113 20.3598C36.4101 15.1044 30.5554 10.6601 23.4191 7.94956C23.5202 8.47613 23.6026 8.91323 23.6893 9.34885C23.7745 9.77421 23.8627 10.1966 23.958 10.6543C23.3628 10.7833 22.8238 10.9007 22.2314 11.0283C21.9265 9.5586 21.613 8.13291 21.3471 6.69988C21.2604 6.23492 21.5017 5.85063 21.9699 5.74062C23.4942 5.38126 25.0258 5.05418 26.6282 4.69775C26.7525 5.30793 26.8666 5.8653 26.988 6.45347C26.4909 6.56934 26.0589 6.67055 25.6572 6.76442C27.9604 7.99797 30.2751 9.23738 32.5869 10.4753C32.48 10.2641 32.3543 10.0133 32.1881 9.68768C32.9727 9.25791 33.7558 8.82815 34.5751 8.37932C34.8424 8.92349 35.0981 9.44126 35.3654 9.98543C34.6993 10.3492 34.0665 10.6939 33.3469 11.087C36.8508 13.4617 40.0295 16.1385 42.9626 19.1072C42.545 19.5267 42.1506 19.9213 41.7113 20.3598Z" fill="black"/>
<path d="M51.0266 20.6677C52.4252 20.2614 53.7357 19.8639 55.0564 19.5045C55.6517 19.3417 56.0634 19.5412 56.2282 20.0868C56.6804 21.5873 57.0922 23.101 57.5416 24.6851C56.9578 24.8523 56.416 25.0078 55.8438 25.1721C55.6878 24.6441 55.5476 24.1747 55.3656 23.5572C52.6954 30.7238 48.4402 36.6818 43.3268 42.0838C42.9381 41.6379 42.5624 41.2067 42.1521 40.7374C47.2814 35.2707 51.671 29.1485 54.1389 21.6431C53.2069 21.9056 52.3848 22.1388 51.5106 22.3852C51.3473 21.8073 51.1956 21.2705 51.0266 20.6677Z" fill="black"/>
<path d="M56.3235 60.7983C56.153 60.2013 56.0056 59.6791 55.838 59.0939C56.3452 58.9296 56.8278 58.7727 57.4173 58.582C50.3662 55.8817 44.4986 51.5518 39.1366 46.3257C39.5773 45.9429 39.9992 45.5777 40.4847 45.1567C43.1129 47.6972 45.9825 50.1643 49.1424 52.2573C52.2923 54.3445 55.5837 56.1442 59.3057 57.3118C59.0587 56.4141 58.8318 55.5839 58.5819 54.6745C59.1309 54.5147 59.6727 54.3577 60.2854 54.1803C60.687 55.6455 61.0974 57.0595 61.4557 58.4881C61.5728 58.956 61.2997 59.3257 60.8547 59.4621C59.3736 59.9182 57.884 60.3421 56.3235 60.7983Z" fill="black"/>
<path d="M8.73769 39.3646C9.67109 39.1681 10.4961 38.9935 11.3775 38.8087C11.5061 39.3881 11.626 39.9322 11.7618 40.5424C11.1824 40.6744 10.6305 40.805 10.0757 40.9267C9.26508 41.1056 8.4545 41.2831 7.64247 41.4503C7.12376 41.5574 6.74086 41.3491 6.55447 40.8739C6.50824 40.7551 6.47789 40.6289 6.45189 40.5043C6.14846 39.058 5.84648 37.6118 5.53149 36.104C6.11523 35.9764 6.65272 35.8576 7.24657 35.7285C7.35927 36.2199 7.46041 36.6687 7.59623 37.2627C10.4773 30.4144 14.6921 24.6706 19.7289 19.4944C20.1508 19.93 20.541 20.3304 20.9672 20.7705C18.3967 23.4429 15.9823 26.2767 13.8945 29.3848C11.8124 32.4796 10.0193 35.7256 8.73769 39.3646Z" fill="black"/>
<path d="M43.9539 56.5682C44.042 56.0211 44.1301 55.4696 44.1966 55.0486C45.2904 55.0486 46.3148 55.0633 47.3363 55.0457C49.2176 55.0119 50.9876 54.569 52.5134 53.4029C54.1764 52.1312 55.0058 50.3579 55.3049 48.3103C55.721 45.4707 55.2124 42.7307 54.3642 40.0407C54.0146 38.9304 53.5869 37.845 53.1809 36.7097C53.6866 36.4838 54.1938 36.2565 54.8006 35.9836C55.2659 37.2876 55.7672 38.5563 56.1704 39.8574C56.8104 41.9255 57.215 44.0479 57.2222 46.2246C57.2323 49.029 56.6371 51.6413 54.7125 53.7872C53.5392 55.0955 52.0813 55.9199 50.4096 56.3966C48.5934 56.9158 45.497 57.0243 43.9539 56.5682Z" fill="black"/>
<path d="M37.0588 9.14917C36.8334 8.6314 36.6094 8.11804 36.358 7.54453C36.884 7.32452 37.3882 7.10157 37.9012 6.90209C40.6811 5.82402 43.5261 5.05251 46.5286 5.04811C49.2811 5.04517 51.8241 5.67881 53.9163 7.62227C55.2022 8.81768 56.0041 10.3094 56.4636 12.0064C57.0444 14.1479 56.9968 16.3026 56.6616 18.5159C56.0879 18.425 55.5577 18.3428 54.9523 18.2475C54.984 17.9057 55.0187 17.5698 55.0476 17.2325C55.2224 15.2054 55.1733 13.2062 54.3425 11.3024C53.2921 8.88955 51.4051 7.5636 48.9184 7.0693C45.9232 6.47233 43.0334 7.07077 40.1884 7.99043C39.1467 8.32632 38.1295 8.74874 37.0588 9.14917Z" fill="black"/>
<path d="M5.81752 43.4802C6.4157 43.5873 6.94597 43.6826 7.53837 43.7897C7.47913 44.3148 7.41267 44.8164 7.36932 45.3195C7.21617 47.1442 7.2913 48.9527 7.97906 50.6718C9.06706 53.3882 11.1636 54.8007 13.9421 55.2275C14.9506 55.3815 15.9823 55.3713 17.0515 55.4387C17.0977 55.9594 17.1454 56.5153 17.1989 57.1108C15.6615 57.3015 14.195 57.1739 12.7559 56.8248C7.98773 55.669 5.65136 51.8613 5.56033 47.2469C5.54588 46.5516 5.56033 45.8534 5.60512 45.1597C5.63835 44.614 5.73949 44.0743 5.81752 43.4802Z" fill="black"/>
<path d="M19.3518 5.00856C19.2521 5.58793 19.1567 6.13796 19.0527 6.7452C18.5239 6.68653 18.0297 6.61906 17.5327 6.57799C15.4174 6.40345 13.3425 6.53399 11.4353 7.60032C9.15956 8.87054 8.08023 10.9475 7.75368 13.4732C7.63087 14.4281 7.63809 15.3991 7.58319 16.4068C7.05291 16.4537 6.5053 16.5021 5.96058 16.549C5.34362 10.9871 7.94441 5.71554 14.143 4.85895C15.8696 4.61986 17.589 4.70787 19.3518 5.00856Z" fill="black"/>
<path d="M28.6395 51.4199C28.9256 51.9524 29.1886 52.4452 29.4848 52.9967C28.4748 53.513 27.5039 54.0088 26.4708 54.5353C26.215 53.9721 25.9809 53.4529 25.7324 52.9043C26.7005 52.4085 27.6426 51.9274 28.6395 51.4199Z" fill="black"/>
<path d="M12.766 33.5753C13.2746 33.2203 13.7312 32.9021 14.2239 32.5588C14.8625 33.4492 15.4867 34.3175 16.1485 35.2386C15.6818 35.6068 15.2339 35.9603 14.7484 36.3445C14.0852 35.4161 13.4494 34.5287 12.766 33.5753Z" fill="black"/>
<path d="M22.191 19.5648C21.7864 19.1335 21.4035 18.7258 20.9744 18.2681C21.8037 17.5025 22.61 16.7603 23.4639 15.9727C23.8569 16.4362 24.2268 16.8718 24.6213 17.3367C23.802 18.0877 23.0145 18.8094 22.191 19.5648Z" fill="black"/>
<path d="M9.986 29.0296C9.47307 27.9941 8.9847 27.007 8.46887 25.9626C9.02371 25.7045 9.53809 25.464 10.0756 25.2131C10.5611 26.1959 11.0364 27.1551 11.5364 28.1643C11.0393 28.4415 10.5437 28.7187 9.986 29.0296Z" fill="black"/>
<path d="M47.1716 26.6755C47.6369 26.3132 48.0761 25.9715 48.5746 25.5828C49.2349 26.5112 49.8822 27.4177 50.5483 28.3535C50.06 28.6908 49.6019 29.0062 49.0861 29.3611C48.4446 28.462 47.8189 27.5849 47.1716 26.6755Z" fill="black"/>
<path d="M35.6052 46.7395C35.9737 47.2177 36.3219 47.6709 36.6932 48.1549C35.7844 48.8282 34.9146 49.4721 33.9739 50.1688C33.6402 49.6818 33.318 49.2139 32.9625 48.6947C33.8425 48.0435 34.7051 47.4054 35.6052 46.7395Z" fill="black"/>
<path d="M39.297 45.9812C38.8867 45.5016 38.5355 45.0894 38.1396 44.6274C38.9401 43.8808 39.7276 43.1474 40.5078 42.4199C40.9283 42.8247 41.3415 43.2208 41.7967 43.6579C40.9543 44.4397 40.1495 45.1877 39.297 45.9812Z" fill="black"/>
<path d="M27.1686 15.2467C26.7987 14.7553 26.4621 14.3079 26.0936 13.818C27.0126 13.1433 27.8983 12.4921 28.8201 11.8159C29.1568 12.3176 29.4703 12.7825 29.8171 13.3003C28.9415 13.9442 28.0832 14.5749 27.1686 15.2467Z" fill="black"/>
<path d="M45.1126 24.0839C44.3699 23.2523 43.6605 22.4602 42.9135 21.6256C43.344 21.2091 43.7558 20.8101 44.198 20.3833C44.9522 21.2311 45.6819 22.0525 46.4549 22.9193C46.0026 23.3124 45.5735 23.6835 45.1126 24.0839Z" fill="black"/>
<path d="M18.2291 37.8054C18.9805 38.6385 19.6942 39.4321 20.4051 40.2212C20.0049 40.648 19.6104 41.069 19.1827 41.5251C18.4126 40.6685 17.6757 39.8486 16.9027 38.992C17.3448 38.5945 17.7595 38.2249 18.2291 37.8054Z" fill="black"/>
<path d="M8.87633 22.1536C8.31572 22.3487 7.79556 22.5306 7.20894 22.7345C6.93441 21.7708 6.67288 20.8512 6.40125 19.8904C7.0081 19.7452 7.54559 19.6176 8.1221 19.4797C8.37351 20.3745 8.61914 21.2413 8.87633 22.1536Z" fill="black"/>
<path d="M22.7126 54.1172C22.9033 54.676 23.0782 55.1894 23.2891 55.8069C22.3543 56.0826 21.4411 56.3525 20.4875 56.6342C20.343 56.0049 20.2173 55.4607 20.0858 54.8872C20.9629 54.6306 21.8009 54.3841 22.7126 54.1172Z" fill="black"/>
<path d="M53.9308 34.1942C53.454 34.4392 53.0393 34.6533 52.6217 34.8631C52.5437 34.9027 52.457 34.9276 52.3414 34.9702C52.233 34.7707 52.1304 34.5815 52.0308 34.3923C51.7447 33.8496 51.46 33.3069 51.1552 32.726C51.671 32.4268 52.1492 32.1496 52.6882 31.8372C53.1029 32.6233 53.5045 33.3875 53.9308 34.1942Z" fill="black"/>
<path d="M41.327 37.8009C41.0612 38.2922 40.6566 38.4521 40.1032 38.4507C35.0057 38.4345 29.9067 38.4419 24.8091 38.4404C23.8887 38.4404 23.594 38.147 23.6012 37.2112C23.6142 35.8428 23.5376 34.4625 23.6807 33.1072C23.9321 30.7502 25.2224 29.0751 27.303 28.019C27.3695 27.9853 27.4345 27.9486 27.5385 27.8929C26.5863 26.3029 26.3147 24.6118 26.858 22.8282C27.2524 21.5345 28.0211 20.5019 29.1105 19.7274C31.2721 18.1917 34.2283 18.3384 36.215 20.0296C38.1584 21.6841 39.2103 24.8215 37.3984 27.9032C38.3376 28.3359 39.1597 28.9299 39.8229 29.7366C40.5699 30.6445 41.0424 31.6801 41.2389 32.8447C41.2562 32.9459 41.2953 33.0427 41.3256 33.1424C41.327 34.6943 41.327 36.2476 41.327 37.8009ZM39.5152 36.5981C39.5152 35.5333 39.5672 34.5139 39.5036 33.5003C39.3866 31.6595 38.1006 30.0388 36.3769 29.4902C36.1963 29.433 35.9275 29.4609 35.7671 29.5606C33.5608 30.9423 31.3689 30.9423 29.1626 29.5606C29.0022 29.4609 28.732 29.4286 28.5528 29.4902C27.0603 30.0021 26.0589 31.0391 25.6024 32.5631C25.2065 33.8802 25.4608 35.2414 25.3972 36.5996C30.1292 36.5981 34.7991 36.5981 39.5152 36.5981ZM32.5147 20.4858C30.3011 20.4388 28.4416 22.2679 28.3867 24.5458C28.3318 26.787 30.1566 28.7158 32.3702 28.7539C34.6329 28.7935 36.4954 26.9806 36.5445 24.6924C36.5936 22.4234 34.7832 20.5327 32.5147 20.4858Z" fill="black"/>
</svg>
