<svg width="57" height="53" viewBox="0 0 57 53" fill="none" xmlns="http://www.w3.org/2000/svg">
<path d="M17.8987 18.1985C17.8987 17.6281 18.1254 17.0809 18.5287 16.6775C18.9321 16.2742 19.4793 16.0475 20.0497 16.0475H37.2578C37.8283 16.0475 38.3754 16.2742 38.7788 16.6775C39.1822 17.0809 39.4088 17.6281 39.4088 18.1985C39.4088 18.769 39.1822 19.3161 38.7788 19.7195C38.3754 20.1229 37.8283 20.3495 37.2578 20.3495H20.0497C19.4793 20.3495 18.9321 20.1229 18.5287 19.7195C18.1254 19.3161 17.8987 18.769 17.8987 18.1985ZM20.0497 28.9536H37.2578C37.8283 28.9536 38.3754 28.727 38.7788 28.3236C39.1822 27.9202 39.4088 27.3731 39.4088 26.8026C39.4088 26.2321 39.1822 25.685 38.7788 25.2816C38.3754 24.8782 37.8283 24.6516 37.2578 24.6516H20.0497C19.4793 24.6516 18.9321 24.8782 18.5287 25.2816C18.1254 25.685 17.8987 26.2321 17.8987 26.8026C17.8987 27.3731 18.1254 27.9202 18.5287 28.3236C18.9321 28.727 19.4793 28.9536 20.0497 28.9536ZM56.6169 5.29249V39.7086C56.6169 40.8496 56.1636 41.9438 55.3568 42.7506C54.5501 43.5574 53.4558 44.0106 52.3149 44.0106H36.3248L32.3347 50.5416C31.9506 51.176 31.4091 51.7003 30.7626 52.0637C30.1162 52.4271 29.3868 52.6172 28.6452 52.6156C27.9036 52.6139 27.175 52.4206 26.5302 52.0544C25.8853 51.6882 25.3461 51.1615 24.9648 50.5255L20.9827 44.0106H4.99269C3.85172 44.0106 2.75749 43.5574 1.9507 42.7506C1.14392 41.9438 0.690674 40.8496 0.690674 39.7086V5.29249C0.690674 4.15153 1.14392 3.05729 1.9507 2.25051C2.75749 1.44373 3.85172 0.990479 4.99269 0.990479H52.3149C53.4558 0.990479 54.5501 1.44373 55.3568 2.25051C56.1636 3.05729 56.6169 4.15153 56.6169 5.29249ZM52.3149 5.29249H4.99269V39.7086H20.9827C21.7233 39.7106 22.451 39.9027 23.096 40.2666C23.7411 40.6306 24.2818 41.1541 24.6663 41.787L28.6538 48.3126L32.6385 41.7736C33.0248 41.1426 33.5666 40.6213 34.212 40.2598C34.8575 39.8982 35.585 39.7084 36.3248 39.7086H52.3149V5.29249Z" fill="black"/>
</svg>
