<svg width="76" height="52" viewBox="0 0 76 52" fill="none" xmlns="http://www.w3.org/2000/svg">
<path d="M44.7598 18.2734C44.7598 17.5888 45.0317 16.9322 45.5158 16.4482C45.9999 15.9641 46.6564 15.6921 47.341 15.6921H73.1536C73.8382 15.6921 74.4947 15.9641 74.9788 16.4482C75.4629 16.9322 75.7348 17.5888 75.7348 18.2734C75.7348 18.958 75.4629 19.6145 74.9788 20.0986C74.4947 20.5827 73.8382 20.8546 73.1536 20.8546H47.341C46.6564 20.8546 45.9999 20.5827 45.5158 20.0986C45.0317 19.6145 44.7598 18.958 44.7598 18.2734ZM73.1536 26.0171H47.341C46.6564 26.0171 45.9999 26.2891 45.5158 26.7732C45.0317 27.2572 44.7598 27.9138 44.7598 28.5984C44.7598 29.283 45.0317 29.9395 45.5158 30.4236C45.9999 30.9077 46.6564 31.1796 47.341 31.1796H73.1536C73.8382 31.1796 74.4947 30.9077 74.9788 30.4236C75.4629 29.9395 75.7348 29.283 75.7348 28.5984C75.7348 27.9138 75.4629 27.2572 74.9788 26.7732C74.4947 26.2891 73.8382 26.0171 73.1536 26.0171ZM73.1536 36.3422H47.341C46.6564 36.3422 45.9999 36.6141 45.5158 37.0982C45.0317 37.5823 44.7598 38.2388 44.7598 38.9234C44.7598 39.608 45.0317 40.2646 45.5158 40.7486C45.9999 41.2327 46.6564 41.5047 47.341 41.5047H73.1536C73.8382 41.5047 74.4947 41.2327 74.9788 40.7486C75.4629 40.2646 75.7348 39.608 75.7348 38.9234C75.7348 38.2388 75.4629 37.5823 74.9788 37.0982C74.4947 36.6141 73.8382 36.3422 73.1536 36.3422ZM73.1536 46.6672H18.9472C18.2626 46.6672 17.6061 46.9391 17.122 47.4232C16.6379 47.9073 16.366 48.5638 16.366 49.2484C16.366 49.933 16.6379 50.5896 17.122 51.0736C17.6061 51.5577 18.2626 51.8297 18.9472 51.8297H73.1536C73.8382 51.8297 74.4947 51.5577 74.9788 51.0736C75.4629 50.5896 75.7348 49.933 75.7348 49.2484C75.7348 48.5638 75.4629 47.9073 74.9788 47.4232C74.4947 46.9391 73.8382 46.6672 73.1536 46.6672ZM21.5285 41.5047C16.7379 41.4995 12.145 39.5942 8.7576 36.2068C5.37016 32.8193 3.46484 28.2264 3.45971 23.4359C3.45796 21.1126 3.90837 18.8113 4.78583 16.6601C3.20683 15.5638 2.01865 13.9925 1.39404 12.1745C0.769436 10.3566 0.740966 8.38678 1.31277 6.55154C1.88458 4.71629 3.02685 3.11127 4.57351 1.96982C6.12017 0.828364 7.9906 0.209989 9.91285 0.204596C10.3519 0.203664 10.7839 0.314716 11.168 0.527252L33.7314 13.0625C34.6912 12.9094 35.5584 12.4009 36.1606 11.6379C36.7629 10.875 37.0561 9.91347 36.9822 8.94431C36.9082 7.97515 36.4724 7.06925 35.7614 6.40654C35.0504 5.74383 34.1161 5.37279 33.1441 5.3671C32.4595 5.3671 31.803 5.09515 31.3189 4.61107C30.8348 4.12699 30.5629 3.47044 30.5629 2.78585C30.5629 2.10126 30.8348 1.44471 31.3189 0.960628C31.803 0.476549 32.4595 0.204596 33.1441 0.204596C35.5402 0.204596 37.8381 1.15643 39.5324 2.85071C41.2267 4.54498 42.1785 6.84292 42.1785 9.23899C42.1785 11.6351 41.2267 13.933 39.5324 15.6273C37.8381 17.3215 35.5402 18.2734 33.1441 18.2734C32.7051 18.2743 32.2731 18.1633 31.889 17.9507L18.9827 10.7845C16.0626 11.3713 13.4353 12.95 11.5464 15.2529C9.65745 17.5559 8.6232 20.4413 8.61902 23.4198C8.61484 26.3983 9.64099 29.2865 11.5234 31.5948C13.4059 33.903 16.0288 35.4891 18.9472 36.084V23.4359C18.9472 22.7513 19.2192 22.0947 19.7033 21.6107C20.1874 21.1266 20.8439 20.8546 21.5285 20.8546C22.2131 20.8546 22.8696 21.1266 23.3537 21.6107C23.8378 22.0947 24.1097 22.7513 24.1097 23.4359V36.0808C26.2918 35.6336 28.3213 34.6305 30.0019 33.1687C31.6825 31.7069 32.9571 29.8359 33.7023 27.7369C33.9393 27.103 34.4159 26.5875 35.0292 26.3015C35.6426 26.0154 36.3438 25.9817 36.9818 26.2077C37.6197 26.4336 38.1434 26.901 38.4401 27.5093C38.7368 28.1176 38.7827 28.8181 38.568 29.4599C37.3184 32.9808 35.0098 36.0287 31.9589 38.1853C28.9081 40.3418 25.2646 41.5014 21.5285 41.5047ZM7.40581 12.1881C8.94798 10.2518 10.8694 8.65097 13.0523 7.48373L9.32562 5.41228C8.591 5.52268 7.90366 5.84209 7.34558 6.33239C6.7875 6.82269 6.38225 7.46319 6.17817 8.17747C5.97409 8.89175 5.9798 9.64966 6.19461 10.3608C6.40943 11.0719 6.82428 11.7062 7.38967 12.1881H7.40581Z" fill="black"/>
</svg>
